<svg width="3840" height="2160" viewBox="0 0 3840 2160" fill="none" xmlns="http://www.w3.org/2000/svg">
<g clip-path="url(#clip0_205_19)">
<rect width="3840" height="2160" fill="url(#paint0_linear_205_19)"/>
<circle cx="1370.86" cy="332.923" r="60" transform="rotate(-53.8816 1370.86 332.923)" fill="#FFDC62"/>
<circle cx="1079.82" cy="407.746" r="60" transform="rotate(-53.8816 1079.82 407.746)" fill="#FFF5EB"/>
<g opacity="0.5">
<path opacity="0.8" d="M3495.68 -36.3959L3602.67 -119.184L3791.78 -180.98L3831.66 -48.6974L3645.95 25.1675L3520.47 89.1807L3423.29 208.766L3219.23 249.049L3126.69 353.446L3018.78 410.933L2979.28 484.476L2882.24 547.972L2798.77 636.311L2708.19 662.855L2696.54 696.754L2664.6 723.444L2662.44 764.133L2605.36 808.019L2623.06 827.969L2548.99 842.591L2383.82 819.135L2512.5 807.493L2632.94 756.705L2663.74 677.747L2707.88 630.298L2771.16 617.807L2938.13 469.665L2963.98 406.972L3053.78 335.221L3100.06 218.549L3151.57 208.382L3277.64 183.495L3346.58 142.875L3495.68 -36.3959Z" fill="white"/>
<path opacity="0.7" d="M3820.81 -13.0771L3885.01 -11.9698L3935.73 139.192L3686.6 219.49L3604.86 391.164L3420.16 390.33L3314.15 485.021L3287.23 548.59L3140.23 554.38L3076.63 550.168L3147.91 517.054L3206.65 518.881L3332.6 372.639L3481.04 331.86L3649.6 107.367L3701.65 100.496L3820.81 -13.0771Z" fill="white"/>
<path opacity="0.6" d="M3707.09 366.07L3815.76 293.254L3876.89 345.916L3777.36 415.13L3686.6 409.79L3650.84 494.595L3566.33 520.737L3509.33 562.245L3356.9 580.336L3262.49 692.747L3139.85 707.302L3078.18 811.296L2928.53 810.427L2785.43 924.085L2592.35 926.357L2451.6 1000.46L2304.74 1001.78L2402.05 990.23L2547.47 913.053L2738.13 890.425L2880.11 788.481L3029.92 752.574L3112.48 650.633L3228.1 657.554L3277.46 589.765L3439.82 519.64L3479.94 530.991L3586.86 481.545L3654.45 372.317L3707.09 366.07Z" fill="white"/>
<path opacity="0.5" d="M3794.45 706.222L3842.52 744.184L3883.43 803.154L3793.16 825.056L3821.64 839.238L3634.57 890.481L3469.21 882.691L3345.47 913.784L3254.16 919.719L3156.58 898.505L3238.86 900.171L3299.11 871.202L3281.2 842.303L3283.19 803.592L3323.91 759.357L3366.89 750.049L3394.55 759.275L3426.03 711.632L3464.94 709.103L3485.99 716.754L3501.13 672.178L3540.33 635.557L3613.18 630.822L3699.87 661.763L3727.35 699.06L3794.45 706.222Z" fill="white"/>
<path d="M2579.94 398.033L2651.19 307.87L2556.35 393.393L2524.06 392.151L2490.02 418.225L2347.72 506.559L2324.05 545.652L2171.91 611.365L2071.81 640.13L2207.65 621.806L2361.07 548.927L2441.73 462.331L2579.94 398.033Z" fill="white"/>
<path opacity="0.6" d="M1181 964L1434 960.5L1207.5 934L1094.5 881L811.5 790.5L702 719L490.5 704L264 609.5L-26.5 549L-15 639.5L226.5 673.5L302 723L668 756.5L705.5 798L1132 922.5L1181 964Z" fill="white"/>
<path opacity="0.8" d="M170 39.5L27 -13.5L253 -32L260.5 58.5L430.5 183L517.5 186.5L668 375.5L823 420.5L834 379L936 492.5L1117.5 506L1448.5 678L1392 615.5L1561 665L1462.5 658.5L1607.5 707.5L1457 707L1158.5 586.5L902 526.5L853 469.5L649.5 454.5L528.5 288.5L385 269.5L347.5 175.5L219 145L170 39.5Z" fill="white"/>
<path opacity="0.7" d="M181 266L-19 74L-30 266L113.5 341.5L90.5 387L249 526.5L370 534L615 594.5L841.5 707.5L1011.5 704L868 677.5L653 560.5L543.5 556.5L305.5 458.5L181 323V266Z" fill="white"/>
<path opacity="0.4" d="M75.5 775.5L-26.5 862.5L-17 1291L520.5 1337L1192.5 1300L1528.5 1315L2309.5 1273.5L2071.5 1221H1815L1664 1168L1520.5 1194.5L1362 1119L1173.5 1092.5L1124.5 1043.5L902 1028.5L664 858.5L513.5 828.5L264 851L75.5 775.5Z" fill="white"/>
<path opacity="0.4" d="M3739.5 1013.5L3879 941.5L3852.5 1058.5L3611 1070L3452.5 1107.5L3203.5 1104L3415 1081L3517 1039.5L3739.5 1013.5Z" fill="white"/>
<path opacity="0.6" d="M1059.5 797.5L1043.5 820.5L1005 806.5L899.5 795L970.5 815.5L1112.5 868.5L1229 918.5L1405 934.5L1496.5 955L1647 971L1713.5 957.5L1654 955L1567 932.5L1539.5 909.5L1514.5 916.5L1482.5 884.5L1448.5 891L1427.5 907L1405 889L1400.5 829.5L1375 781.5L1320.5 756.5L1281.5 761L1261 729L1199 724.5L1153.5 756.5L1126 813.5L1098.5 790.5L1059.5 797.5Z" fill="white"/>
</g>
<g opacity="0.5">
<path fill-rule="evenodd" clip-rule="evenodd" d="M3343.81 1187.04C3343.78 1186.95 3343.73 1186.85 3343.74 1186.76C3343.8 1186.26 3343.91 1185.77 3343.95 1185.27C3343.98 1184.95 3344.11 1184.58 3343.71 1184.37C3343.66 1184.34 3343.65 1184.26 3343.63 1184.21C3343.45 1183.83 3343.3 1183.45 3343.11 1183.08C3342.98 1182.83 3342.77 1182.61 3342.85 1182.29C3342.86 1182.25 3342.83 1182.19 3342.8 1182.15C3342.71 1182.01 3342.64 1181.85 3342.52 1181.74C3342.29 1181.51 3342.08 1181.27 3341.7 1181.27C3341.45 1181.28 3341.21 1181.19 3340.97 1181.14C3340.92 1181.13 3340.87 1181.09 3340.84 1181.05C3340.72 1180.88 3340.6 1180.71 3340.49 1180.53C3340.46 1180.48 3340.47 1180.38 3340.5 1180.33C3340.58 1180.18 3340.7 1180.22 3340.84 1180.35C3340.86 1180.2 3340.88 1180.11 3340.89 1180.01C3340.9 1179.89 3340.89 1179.76 3340.92 1179.64C3340.97 1179.44 3341.07 1179.25 3341.1 1179.05C3341.12 1178.92 3341.04 1178.78 3341.04 1178.64C3341.04 1178.01 3340.82 1177.5 3340.2 1177.22C3340.12 1177.18 3340.05 1177.11 3339.96 1177.08C3339.86 1177.05 3339.72 1177 3339.65 1177.04C3339.4 1177.16 3339.14 1177.3 3338.93 1177.48C3338.45 1177.9 3338.48 1178.48 3338.46 1179.04C3338.46 1179.15 3338.51 1179.26 3338.54 1179.37C3338.62 1179.63 3338.7 1179.88 3338.78 1180.13C3338.8 1180.21 3338.83 1180.27 3338.86 1180.37C3338.93 1180.31 3338.98 1180.28 3339.02 1180.24C3339.04 1180.26 3339.05 1180.27 3339.07 1180.28C3339.03 1180.35 3338.98 1180.41 3338.94 1180.48C3338.89 1180.57 3338.79 1180.68 3338.79 1180.77C3338.81 1180.95 3338.72 1181 3338.59 1181.02C3338.39 1181.06 3338.18 1181.12 3337.99 1181.1C3337.6 1181.06 3337.34 1181.24 3337.11 1181.49C3336.89 1181.72 3336.59 1181.91 3336.65 1182.3C3336.66 1182.32 3336.64 1182.35 3336.63 1182.37C3336.47 1182.64 3336.32 1182.91 3336.16 1183.17C3336.14 1183.2 3336.1 1183.21 3336.08 1183.23C3336 1183.31 3335.9 1183.37 3335.85 1183.46C3335.66 1183.82 3335.5 1184.19 3335.31 1184.55C3335.24 1184.68 3335.12 1184.79 3335.02 1184.92C3335.14 1185.01 3335.24 1185.16 3335.43 1185.04C3335.46 1185.02 3335.53 1185.03 3335.56 1185.05C3335.8 1185.21 3336.03 1185.38 3336.24 1185.53C3336.21 1185.63 3336.2 1185.7 3336.18 1185.78C3336.25 1185.78 3336.31 1185.79 3336.38 1185.8C3336.42 1185.81 3336.46 1185.82 3336.48 1185.84C3336.77 1186.11 3337.11 1186.31 3337.46 1186.49C3337.52 1186.52 3337.56 1186.6 3337.59 1186.66C3337.63 1186.79 3337.71 1186.82 3337.82 1186.72C3337.84 1186.69 3337.85 1186.65 3337.86 1186.63C3338.24 1186.81 3338.26 1186.86 3338.2 1187.2C3338.16 1187.4 3338.12 1187.59 3338.08 1187.79C3338.08 1187.8 3338.06 1187.82 3338.05 1187.84C3338 1187.81 3337.96 1187.78 3337.87 1187.72C3337.84 1187.9 3337.79 1188.04 3337.79 1188.18C3337.8 1189.54 3337.82 1190.9 3337.83 1192.26C3337.83 1192.35 3337.82 1192.46 3337.78 1192.54C3337.61 1192.82 3337.47 1193.1 3337.45 1193.43C3337.41 1193.87 3337.37 1194.32 3337.34 1194.77C3337.29 1195.44 3337.32 1196.11 3337.43 1196.79C3337.55 1197.51 3337.67 1198.24 3337.47 1199C3337.68 1199 3337.63 1199.14 3337.62 1199.25C3337.62 1199.31 3337.61 1199.37 3337.61 1199.43C3337.57 1199.71 3337.67 1199.91 3337.95 1199.94C3338.3 1199.98 3338.67 1199.97 3339.03 1199.95C3339.13 1199.95 3339.28 1199.83 3339.3 1199.74C3339.32 1199.65 3339.24 1199.5 3339.17 1199.42C3339.03 1199.28 3338.92 1199.15 3338.87 1198.94C3338.66 1198.09 3338.63 1197.24 3338.78 1196.37C3338.84 1196.06 3338.87 1195.73 3338.92 1195.41C3338.96 1195.18 3339.01 1194.95 3339.07 1194.73C3339.09 1194.67 3339.19 1194.59 3339.25 1194.59C3339.43 1194.6 3339.52 1194.5 3339.59 1194.36C3339.63 1194.3 3339.66 1194.23 3339.71 1194.14C3339.86 1194.31 3339.87 1194.44 3339.79 1194.61C3339.62 1194.93 3339.54 1195.27 3339.56 1195.63C3339.57 1195.98 3339.59 1196.33 3339.62 1196.68C3339.66 1197.19 3339.68 1197.71 3339.56 1198.22C3339.53 1198.37 3339.53 1198.52 3339.51 1198.67C3339.5 1198.82 3339.49 1198.96 3339.48 1199.1C3339.44 1199.56 3339.44 1199.61 3339.87 1199.66C3340.27 1199.71 3340.68 1199.77 3341.09 1199.78C3341.45 1199.79 3341.8 1199.76 3342.16 1199.72C3342.24 1199.71 3342.36 1199.62 3342.37 1199.56C3342.38 1199.48 3342.3 1199.37 3342.23 1199.31C3342.15 1199.25 3342.03 1199.21 3341.93 1199.17C3341.64 1199.05 3341.34 1198.94 3341.06 1198.82C3341 1198.79 3340.94 1198.72 3340.92 1198.66C3340.8 1198.22 3340.75 1197.76 3340.84 1197.3C3340.99 1196.48 3341.16 1195.65 3341.34 1194.83C3341.36 1194.71 3341.44 1194.61 3341.49 1194.49C3341.5 1194.5 3341.51 1194.51 3341.52 1194.52C3341.54 1194.64 3341.55 1194.76 3341.57 1194.89C3341.6 1194.88 3341.63 1194.88 3341.66 1194.88C3341.67 1194.79 3341.68 1194.69 3341.7 1194.59C3341.72 1194.52 3341.74 1194.43 3341.79 1194.4C3342.03 1194.28 3342.13 1194.07 3342.15 1193.82C3342.18 1193.49 3342.09 1193.18 3341.95 1192.88C3341.9 1192.78 3341.87 1192.65 3341.89 1192.55C3342.06 1191.7 3342.15 1190.84 3342.15 1189.98C3342.14 1189.05 3342.05 1188.13 3342.21 1187.2C3342.24 1187.01 3342.23 1186.82 3342.23 1186.63C3342.23 1186.57 3342.21 1186.49 3342.17 1186.47C3342.05 1186.4 3342.05 1186.3 3342.07 1186.2C3342.15 1185.8 3342.05 1185.39 3342.21 1184.99C3342.29 1184.79 3342.21 1184.52 3342.2 1184.29C3342.19 1184.21 3342.18 1184.13 3342.17 1184.01C3342.41 1184.3 3342.6 1184.82 3342.6 1185.11C3342.6 1185.19 3342.62 1185.27 3342.62 1185.35C3342.67 1185.91 3342.74 1186.47 3342.57 1187.02C3342.54 1187.1 3342.53 1187.18 3342.54 1187.26C3342.54 1187.31 3342.59 1187.38 3342.64 1187.4C3342.66 1187.41 3342.74 1187.36 3342.77 1187.32C3342.82 1187.24 3342.84 1187.15 3342.88 1187.07C3343.21 1187.24 3343.24 1187.39 3343.01 1187.62C3342.96 1187.66 3342.96 1187.73 3342.93 1187.8C3343 1187.8 3343.06 1187.81 3343.12 1187.79C3343.2 1187.77 3343.26 1187.73 3343.33 1187.7C3343.35 1187.71 3343.36 1187.73 3343.38 1187.75C3343.31 1187.83 3343.24 1187.91 3343.17 1187.99C3343.05 1188.13 3343.07 1188.19 3343.19 1188.23C3343.28 1188.41 3343.36 1188.55 3343.43 1188.71C3343.5 1188.66 3343.53 1188.64 3343.57 1188.62C3343.98 1188.34 3343.81 1187.86 3343.97 1187.49C3343.98 1187.47 3343.96 1187.44 3343.95 1187.41C3343.91 1187.29 3343.86 1187.17 3343.81 1187.04ZM3338.04 1185.12C3337.99 1185.11 3337.92 1185.13 3337.89 1185.1C3337.62 1184.88 3337.35 1184.66 3337.09 1184.43C3337.06 1184.4 3337.08 1184.27 3337.11 1184.21C3337.16 1184.07 3337.25 1183.94 3337.33 1183.78C3337.4 1183.85 3337.45 1183.88 3337.47 1183.91C3337.66 1184.27 3337.86 1184.62 3338.04 1184.98C3338.06 1185.01 3338.04 1185.07 3338.04 1185.12ZM3338.54 1185.69C3338.4 1185.56 3338.26 1185.44 3338.09 1185.29C3338.33 1185.23 3338.28 1185.13 3338.18 1185.02C3338.12 1184.95 3338.06 1184.88 3338.03 1184.79C3337.89 1184.5 3337.76 1184.21 3337.62 1183.91C3337.6 1183.87 3337.59 1183.82 3337.56 1183.79C3337.38 1183.64 3337.44 1183.47 3337.55 1183.32C3337.58 1183.27 3337.65 1183.21 3337.69 1183.21C3337.75 1183.22 3337.83 1183.29 3337.84 1183.34C3337.89 1183.5 3337.91 1183.67 3337.96 1183.82C3338 1183.95 3338.08 1184.06 3338.13 1184.18C3338.17 1184.3 3338.19 1184.42 3338.23 1184.54C3338.33 1184.86 3338.44 1185.17 3338.55 1185.49C3338.56 1185.54 3338.58 1185.6 3338.6 1185.65C3338.58 1185.66 3338.56 1185.68 3338.54 1185.69ZM3339.75 1193.04C3339.48 1192.41 3339.76 1191.81 3339.8 1191.21C3339.82 1191.21 3339.85 1191.2 3339.87 1191.2C3339.9 1191.36 3339.94 1191.51 3339.96 1191.67C3340 1191.93 3340.01 1192.2 3340.07 1192.46C3340.13 1192.73 3340.03 1192.91 3339.75 1193.04Z" fill="black"/>
<path fill-rule="evenodd" clip-rule="evenodd" d="M3342.05 1196.33C3342.27 1196.05 3342.47 1195.77 3342.68 1195.5C3342.71 1195.46 3342.74 1195.43 3342.75 1195.4C3342.81 1195.18 3342.87 1194.97 3342.93 1194.76C3342.98 1194.58 3343.03 1194.41 3343.08 1194.24C3343.11 1194.11 3343.15 1193.98 3343.19 1193.85C3343.2 1193.81 3343.25 1193.78 3343.3 1193.79C3343.34 1193.8 3343.39 1193.81 3343.43 1193.82C3343.46 1193.73 3343.48 1193.65 3343.5 1193.57C3343.51 1193.53 3343.51 1193.5 3343.49 1193.47C3343.44 1193.35 3343.38 1193.22 3343.33 1193.1C3343.17 1192.74 3343.02 1192.39 3342.86 1192.04C3342.77 1191.83 3342.68 1191.63 3342.58 1191.42C3342.48 1191.19 3342.38 1190.95 3342.27 1190.72C3342.19 1190.53 3342.11 1190.35 3342.08 1190.15C3342.06 1190 3342.06 1189.85 3342.07 1189.71C3342.09 1189.57 3342.12 1189.44 3342.17 1189.31C3342.31 1188.96 3342.54 1188.68 3342.86 1188.45C3343 1188.34 3343.16 1188.26 3343.32 1188.19C3343.6 1188.07 3343.89 1188.02 3344.2 1188.01C3344.34 1188 3344.49 1188.01 3344.63 1188.04C3344.84 1188.07 3345.04 1188.13 3345.23 1188.21C3345.49 1188.33 3345.71 1188.48 3345.9 1188.68C3346.01 1188.81 3346.11 1188.95 3346.18 1189.1C3346.3 1189.36 3346.42 1189.63 3346.53 1189.89C3346.7 1190.28 3346.88 1190.67 3347.05 1191.06C3347.16 1191.3 3347.27 1191.55 3347.37 1191.8C3347.48 1192.03 3347.58 1192.26 3347.68 1192.49C3347.77 1192.69 3347.86 1192.89 3347.95 1193.1C3347.97 1193.14 3347.99 1193.18 3347.99 1193.22C3347.99 1193.3 3347.98 1193.37 3347.97 1193.44C3347.96 1193.51 3347.95 1193.59 3347.94 1193.66C3347.93 1193.74 3347.92 1193.81 3347.91 1193.89C3347.9 1193.93 3347.88 1193.95 3347.84 1193.97C3347.61 1194.04 3347.39 1194.12 3347.16 1194.2C3347.05 1194.24 3346.95 1194.27 3346.84 1194.31C3346.9 1194.45 3346.96 1194.59 3347.01 1194.73C3347.02 1194.76 3347.04 1194.79 3347.04 1194.82C3347.05 1194.93 3347.05 1195.04 3347.05 1195.15C3347.05 1195.17 3347.06 1195.18 3347.06 1195.19C3347.14 1195.28 3347.22 1195.37 3347.3 1195.46C3347.31 1195.47 3347.33 1195.47 3347.34 1195.47C3347.37 1195.47 3347.4 1195.48 3347.42 1195.51C3347.43 1195.52 3347.44 1195.53 3347.45 1195.55C3347.58 1195.71 3347.71 1195.87 3347.84 1196.03C3347.86 1196.06 3347.89 1196.09 3347.91 1196.12C3347.94 1196.16 3347.93 1196.2 3347.92 1196.24C3347.91 1196.31 3347.9 1196.38 3347.88 1196.45C3347.87 1196.51 3347.86 1196.57 3347.86 1196.63C3347.85 1196.69 3347.81 1196.72 3347.75 1196.72C3347.23 1196.72 3346.71 1196.72 3346.19 1196.72C3346.07 1196.72 3345.95 1196.72 3345.84 1196.72C3345.78 1196.72 3345.75 1196.69 3345.74 1196.65C3345.73 1196.6 3345.73 1196.56 3345.72 1196.51C3345.71 1196.42 3345.7 1196.34 3345.68 1196.26C3345.66 1196.19 3345.67 1196.13 3345.72 1196.07C3345.88 1195.89 3346.02 1195.7 3346.17 1195.51C3346.19 1195.5 3346.22 1195.48 3346.24 1195.47C3346.16 1195.4 3346.07 1195.32 3345.98 1195.25C3345.95 1195.22 3345.91 1195.19 3345.89 1195.15C3345.86 1195.07 3345.83 1194.99 3345.79 1194.91C3345.76 1194.85 3345.74 1194.78 3345.71 1194.71C3345.69 1194.71 3345.68 1194.71 3345.67 1194.72C3345.35 1194.83 3345.02 1194.94 3344.69 1195.06C3344.66 1195.07 3344.62 1195.07 3344.58 1195.05C3344.56 1195.14 3344.54 1195.22 3344.52 1195.3C3344.5 1195.34 3344.5 1195.38 3344.53 1195.42C3344.78 1195.74 3345.02 1196.06 3345.26 1196.38C3345.28 1196.4 3345.28 1196.43 3345.28 1196.45C3345.25 1196.61 3345.21 1196.76 3345.17 1196.91C3345.16 1196.97 3345.13 1197 3345.05 1197C3344.78 1196.99 3344.51 1196.99 3344.24 1196.99C3344.03 1196.99 3343.83 1196.99 3343.62 1196.99C3343.15 1196.99 3342.68 1196.99 3342.21 1196.99C3342.15 1196.99 3342.12 1196.97 3342.1 1196.91C3342.08 1196.78 3342.05 1196.65 3342.02 1196.53C3342 1196.45 3342 1196.39 3342.05 1196.33Z" fill="black"/>
</g>
<path d="M0 1403.5C702.915 1378.82 1439.5 1282.5 2202.5 1240.1C2202.5 1240.1 2981 1181.5 3113.5 1181.5C3246 1181.5 3840 1240.1 3840 1240.1V2161H0V1403.5Z" fill="#FFCCE2"/>
<path d="M0 1232L1036 1294L1619 1256.5L2202.5 1294C2202.5 1294 2761.5 1373 3094 1308C3426.5 1243 3840 1294 3840 1294V2160.5H0V1232Z" fill="#BE5894"/>
<path d="M0 1282C1458.94 1294.01 1062.5 1710 3840 1282V2160H0V1282Z" fill="#98346E"/>
<path d="M0 1475C841 1540 1535.5 1529 2238 1348C2916 1488.5 3291.5 1564 3840 1564V2160H0V1475Z" fill="#7A2A58"/>
<path d="M2238 1348C1535.5 1529 841 1540 0 1475V1899C182.167 1886.5 670.3 1842.5 1165.5 1766.5C1660.7 1690.5 2086.83 1455.83 2238 1348Z" fill="#5B1F41"/>
<g style="mix-blend-mode:color-dodge" opacity="0.6">
<path d="M1791.78 1267.6C1927.8 1257.17 2064.72 1247.75 2202.5 1240.1C2202.5 1240.1 2981 1181.5 3113.5 1181.5C3246 1181.5 3840 1240.1 3840 1240.1V2161H0V1232L1036 1294L1619 1256.5L1791.78 1267.6Z" fill="#14FF00"/>
</g>
<g style="mix-blend-mode:soft-light" opacity="0.2">
<path d="M1791.78 1267.6C1927.8 1257.17 2064.72 1247.75 2202.5 1240.1C2202.5 1240.1 2981 1181.5 3113.5 1181.5C3246 1181.5 3840 1240.1 3840 1240.1V2161H0V1232L1036 1294L1619 1256.5L1791.78 1267.6Z" fill="#FFD770"/>
</g>
<g style="mix-blend-mode:difference" opacity="0.6">
<path d="M1791.78 1267.6C1927.8 1257.17 2064.72 1247.75 2202.5 1240.1C2202.5 1240.1 2981 1181.5 3113.5 1181.5C3246 1181.5 3840 1240.1 3840 1240.1V2161H0V1232L1036 1294L1619 1256.5L1791.78 1267.6Z" fill="#0078BC"/>
</g>
<g style="mix-blend-mode:difference" opacity="0.1">
<path d="M1791.78 1267.6C1927.8 1257.17 2064.72 1247.75 2202.5 1240.1C2202.5 1240.1 2981 1181.5 3113.5 1181.5C3246 1181.5 3840 1240.1 3840 1240.1V2161H0V1232L1036 1294L1619 1256.5L1791.78 1267.6Z" fill="#A7D5FF"/>
</g>
<g opacity="0.8">
<mask id="mask0_205_19" style="mask-type:alpha" maskUnits="userSpaceOnUse" x="1914" y="217" width="11" height="829">
<path d="M1924.99 1045L1914.99 1045L1917.99 217.004L1921.99 217.004L1924.99 1045Z" fill="url(#paint1_linear_205_19)"/>
</mask>
<g mask="url(#mask0_205_19)">
<path d="M1924.99 1045L1914.99 1045L1917.99 217.004L1921.99 217.004L1924.99 1045Z" fill="#FF6565"/>
</g>
</g>
<path d="M1908.79 1043L1903 1047.32L1903 1065.32L1908.79 1070L1904.81 1064.6V1058.29L1910.23 1059.56C1910.23 1059.56 1909.87 1058.66 1909.87 1056.68C1909.87 1054.7 1910.23 1053.44 1910.23 1053.44L1904.81 1054.39L1904.81 1048.4L1908.79 1043Z" fill="white"/>
<path d="M1921.81 1049.84L1921.09 1045.52L1918.91 1045.52L1918.19 1049.84C1918.19 1049.84 1918.91 1049.48 1920 1049.48C1921.09 1049.48 1921.81 1049.84 1921.81 1049.84Z" fill="white"/>
<path d="M1921.81 1056.32C1921.81 1057.31 1921 1058.12 1920 1058.12C1919 1058.12 1918.19 1057.31 1918.19 1056.32C1918.19 1055.32 1919 1054.52 1920 1054.52C1921 1054.52 1921.81 1055.32 1921.81 1056.32Z" fill="white"/>
<path fill-rule="evenodd" clip-rule="evenodd" d="M1924.7 1056.32C1924.7 1058.9 1922.6 1061 1920 1061C1917.4 1061 1915.3 1058.9 1915.3 1056.32C1915.3 1053.73 1917.4 1051.64 1920 1051.64C1922.6 1051.64 1924.7 1053.73 1924.7 1056.32ZM1923.26 1056.32C1923.26 1058.11 1921.8 1059.56 1920 1059.56C1918.2 1059.56 1916.74 1058.11 1916.74 1056.32C1916.74 1054.53 1918.2 1053.08 1920 1053.08C1921.8 1053.08 1923.26 1054.53 1923.26 1056.32Z" fill="white"/>
<path d="M1931.21 1043L1937 1047.32V1065.32L1931.21 1070L1935.19 1064.6L1935.19 1058.29L1929.77 1059.56C1929.77 1059.56 1930.13 1058.66 1930.13 1056.68C1930.13 1054.7 1929.77 1053.44 1929.77 1053.44L1935.19 1054.39V1048.4L1931.21 1043Z" fill="white"/>
<path d="M1927.96 1052.72L1925.43 1052.36C1925.43 1052.36 1925.79 1054.16 1925.79 1056.5C1925.79 1058.84 1925.43 1060.64 1925.43 1060.64L1927.96 1059.92C1927.96 1059.92 1928.32 1058.66 1928.32 1056.5C1928.32 1054.34 1927.96 1052.72 1927.96 1052.72Z" fill="white"/>
<path d="M1921.09 1067.12L1921.81 1062.8C1921.81 1062.8 1921.09 1063.16 1920 1063.16C1918.91 1063.16 1918.19 1062.8 1918.19 1062.8L1918.91 1067.12H1921.09Z" fill="white"/>
<path d="M1914.57 1052.36L1912.04 1052.72C1912.04 1052.72 1911.68 1054.34 1911.68 1056.5C1911.68 1058.66 1912.04 1059.92 1912.04 1059.92L1914.57 1060.64C1914.57 1060.64 1914.21 1058.84 1914.21 1056.5C1914.21 1054.16 1914.57 1052.36 1914.57 1052.36Z" fill="white"/>
</g>
<defs>
<linearGradient id="paint0_linear_205_19" x1="1920" y1="0" x2="1920" y2="2160" gradientUnits="userSpaceOnUse">
<stop stop-color="#5BC4FF"/>
<stop offset="0.504963" stop-color="#95D1F2" stop-opacity="0.495037"/>
<stop offset="1" stop-color="#7DE0FF" stop-opacity="0"/>
</linearGradient>
<linearGradient id="paint1_linear_205_19" x1="1919.99" y1="1045" x2="1919.99" y2="217.004" gradientUnits="userSpaceOnUse">
<stop stop-color="#65DAFF"/>
<stop offset="1" stop-color="#65DAFF" stop-opacity="0"/>
</linearGradient>
<clipPath id="clip0_205_19">
<rect width="3840" height="2160" fill="white"/>
</clipPath>
</defs>
</svg>
