<svg width="40" height="40" viewBox="0 0 40 40" fill="none" xmlns="http://www.w3.org/2000/svg">
<rect x="0.5" y="0.5" width="39" height="39" rx="9.5" stroke="white"/>
<path fill-rule="evenodd" clip-rule="evenodd" d="M22.2373 13.6412C22.2373 12.8773 22.8566 12.2581 23.6205 12.2581H30.5364C31.3003 12.2581 31.9196 12.8773 31.9196 13.6412C31.9196 14.4052 31.3003 15.0244 30.5364 15.0244H23.6205C22.8566 15.0244 22.2373 14.4052 22.2373 13.6412Z" fill="white"/>
<path fill-rule="evenodd" clip-rule="evenodd" d="M11.8632 17.0992C11.8632 17.8631 12.4825 18.4824 13.2464 18.4824C14.0103 18.4824 14.6296 17.8631 14.6296 17.0992V15.0244H16.7044C17.4683 15.0244 18.0876 14.4051 18.0876 13.6412C18.0876 12.8773 17.4683 12.258 16.7044 12.258H14.6296V10.1832C14.6296 9.41932 14.0103 8.80005 13.2464 8.80005C12.4825 8.80005 11.8632 9.41932 11.8632 10.1832V12.258H9.78846C9.02455 12.258 8.40527 12.8773 8.40527 13.6412C8.40527 14.4051 9.02455 15.0244 9.78846 15.0244H11.8632V17.0992Z" fill="white"/>
<path fill-rule="evenodd" clip-rule="evenodd" d="M9.82325 28.3957C9.28309 28.9359 9.28309 29.8116 9.82325 30.3518C10.3634 30.892 11.2392 30.892 11.7794 30.3518L13.2466 28.8846L14.7138 30.3518C15.2539 30.892 16.1297 30.892 16.6699 30.3518C17.2101 29.8117 17.2101 28.9359 16.6699 28.3957L15.2027 26.9285L16.6697 25.4615C17.2099 24.9213 17.2099 24.0455 16.6697 23.5054C16.1295 22.9652 15.2537 22.9652 14.7136 23.5054L13.2466 24.9724L11.7796 23.5054C11.2394 22.9652 10.3636 22.9652 9.82346 23.5054C9.28329 24.0456 9.28329 24.9213 9.82346 25.4615L11.2904 26.9285L9.82325 28.3957Z" fill="white"/>
<path fill-rule="evenodd" clip-rule="evenodd" d="M28.4617 22.8488C28.4617 23.6127 27.8424 24.232 27.0785 24.232C26.3146 24.232 25.6953 23.6127 25.6953 22.8488C25.6953 22.0849 26.3146 21.4656 27.0785 21.4656C27.8424 21.4656 28.4617 22.0849 28.4617 22.8488ZM22.2373 26.3067C22.2373 25.5428 22.8566 24.9235 23.6205 24.9235H30.5364C31.3003 24.9235 31.9196 25.5428 31.9196 26.3067C31.9196 27.0706 31.3003 27.6899 30.5364 27.6899H23.6205C22.8566 27.6899 22.2373 27.0706 22.2373 26.3067ZM27.0785 31.1479C27.8424 31.1479 28.4617 30.5286 28.4617 29.7647C28.4617 29.0008 27.8424 28.3815 27.0785 28.3815C26.3146 28.3815 25.6953 29.0008 25.6953 29.7647C25.6953 30.5286 26.3146 31.1479 27.0785 31.1479Z" fill="white"/>
</svg>
