<svg width="40" height="40" viewBox="0 0 40 40" fill="none" xmlns="http://www.w3.org/2000/svg">
<path fill-rule="evenodd" clip-rule="evenodd" d="M0 10C0 4.47715 4.47715 0 10 0H30C35.5228 0 40 4.47715 40 10V30C40 35.5228 35.5228 40 30 40H10C4.47715 40 0 35.5228 0 30V10ZM22.2371 13.6412C22.2371 12.8773 22.8564 12.258 23.6203 12.258H30.5362C31.3002 12.258 31.9194 12.8773 31.9194 13.6412C31.9194 14.4051 31.3002 15.0244 30.5362 15.0244H23.6203C22.8564 15.0244 22.2371 14.4051 22.2371 13.6412ZM13.2466 18.4823C12.4827 18.4823 11.8634 17.863 11.8634 17.0991V15.0243H9.78866C9.02474 15.0243 8.40547 14.4051 8.40547 13.6412C8.40547 12.8772 9.02474 12.258 9.78866 12.258H11.8634V10.1832C11.8634 9.41927 12.4827 8.8 13.2466 8.8C14.0105 8.8 14.6298 9.41927 14.6298 10.1832V12.258H16.7046C17.4685 12.258 18.0878 12.8772 18.0878 13.6412C18.0878 14.4051 17.4685 15.0243 16.7046 15.0243H14.6298V17.0991C14.6298 17.863 14.0105 18.4823 13.2466 18.4823ZM9.82316 28.3957C9.28299 28.9359 9.28299 29.8117 9.82316 30.3519C10.3633 30.892 11.2391 30.892 11.7793 30.3519L13.2465 28.8847L14.7137 30.3519C15.2538 30.892 16.1296 30.892 16.6698 30.3519C17.21 29.8117 17.21 28.9359 16.6698 28.3958L15.2026 26.9285L16.6696 25.4616C17.2098 24.9214 17.2098 24.0456 16.6696 23.5054C16.1294 22.9653 15.2536 22.9653 14.7135 23.5054L13.2465 24.9724L11.7795 23.5054C11.2393 22.9653 10.3635 22.9653 9.82337 23.5054C9.2832 24.0456 9.2832 24.9214 9.82337 25.4616L11.2903 26.9285L9.82316 28.3957ZM27.0783 24.2319C27.8422 24.2319 28.4615 23.6126 28.4615 22.8487C28.4615 22.0848 27.8422 21.4655 27.0783 21.4655C26.3144 21.4655 25.6951 22.0848 25.6951 22.8487C25.6951 23.6126 26.3144 24.2319 27.0783 24.2319ZM23.6203 24.9235C22.8564 24.9235 22.2371 25.5428 22.2371 26.3067C22.2371 27.0706 22.8564 27.6899 23.6203 27.6899H30.5362C31.3002 27.6899 31.9194 27.0706 31.9194 26.3067C31.9194 25.5428 31.3002 24.9235 30.5362 24.9235H23.6203ZM28.4615 29.7647C28.4615 30.5286 27.8422 31.1478 27.0783 31.1478C26.3144 31.1478 25.6951 30.5286 25.6951 29.7647C25.6951 29.0007 26.3144 28.3815 27.0783 28.3815C27.8422 28.3815 28.4615 29.0007 28.4615 29.7647Z" fill="white"/>
</svg>
