<svg width="50" height="50" viewBox="0 0 50 50" fill="none" xmlns="http://www.w3.org/2000/svg">
<path fill-rule="evenodd" clip-rule="evenodd" d="M0 25C0 11.1929 11.1929 0 25 0C38.8071 0 50 11.1929 50 25C50 38.8071 38.8071 50 25 50C11.1929 50 0 38.8071 0 25ZM29.1071 15.2929L34.5071 20.6929L36.2142 22.4H33.8H33.7788H33.7574H33.7359H33.7141H33.6922H33.6701H33.6477H33.6252H33.6026H33.5797H33.5567H33.5334H33.51H33.4864H33.4627H33.4387H33.4146H33.3903H33.3658H33.3412H33.3163H33.2913H33.2662H33.2408H33.2153H33.1896H33.1637H33.1377H33.1115H33.0851H33.0585H33.0318H33.005H32.9779H32.9507H32.9233H32.8958H32.8681H32.8402H32.8122H32.784H32.7557H32.7271H32.6985H32.6697H32.6407H32.6115H32.5822H32.5528H32.5232H32.4934H32.4635H32.4334H32.4032H32.3728H32.3423H32.3116H32.2808H32.2499H32.2187H32.1875H32.1561H32.1245H32.0928H32.061H32.029H31.9968H31.9646H31.9322H31.8996H31.8669H31.8341H31.8011H31.768H31.7347H31.7014H31.6678H31.6342H31.6004H31.5665H31.5324H31.4982H31.4639H31.4295H31.3949H31.3602H31.3253H31.2904H31.2553H31.2201H31.1847H31.1493H31.1137H31.0779H31.0421H31.0061H30.97H30.9338H30.8975H30.8611H30.8245H30.7878H30.751H30.7141H30.6771H30.6399H30.6027H30.5653H30.5278H30.4902H30.4525H30.4147H30.3767H30.3387H30.3005H30.2623H30.2239H30.1854H30.1469H30.1082H30.0694H30.0305H29.9915H29.9524H29.9132H29.8739H29.8345H29.795H29.7554H29.7157H29.6759H29.636H29.596H29.5559H29.5158H29.4755H29.4351H29.3947H29.3541H29.3135H29.2727H29.2319H29.191H29.15H29.1089H29.0678H29.0265H28.9852H28.9437H28.9022H28.8606H28.8189H28.7772H28.7353H28.6934H28.6514H28.6093H28.5672H28.5249H28.4826H28.4402H28.3978H28.3552H28.3126H28.2699H28.2272H28.1843H28.1414H28.0984H28.0554H28.0123H27.9691H27.9259H27.8825H27.8392H27.7957H27.7522H27.7086H27.665H27.6213H27.5775H27.5337H27.4898H27.4458H27.4018H27.3578H27.3136H27.2695H27.2252H27.1809H27.1366H27.0922H27.0477H27.0032H26.9587H26.9141H26.8694H26.8247H26.7799H26.7351H26.6902H26.6453H26.6004H26.5554H26.5103H26.4653H26.4201H26.375H26.3297H26.2845H26.2392H26.1938H26.1485H26.1031H26.0576H26.0121H25.9666H25.921H25.8754H25.8298H25.7841H25.7384H25.6927H25.6469H25.6011H25.5553H25.5094H25.4636H25.4176H25.3717H25.3257H25.2797H25.2337H25.1877H25.1416H25.0955H25.0494H25.0033H24.9571H24.911H24.8648H24.8186H24.7723H24.7261H24.6798H24.6335H24.5872H24.5409H24.4946H24.4483H24.4019H24.3556H24.3092H24.2628H24.2164H24.17H24.1236H24.0772H24.0307H23.9843H23.9379H23.8914H23.845H23.7985H23.7521H23.7056H23.6592H23.6127H23.5663H23.5198H23.4734H23.4269H23.3805H23.334H23.2876H23.2412H23.1947H23.1483H23.1019H23.0555H23.0091H22.9627H22.9164H22.87H22.8236H22.7773H22.731H22.6846H22.6383H22.5921H22.5458H22.4995H22.4533H22.4071H22.3609H22.3147H22.2686H22.2224H22.1763H22.1302H22.0841H22.0381H21.9921H21.9461H21.9001H21.8541H21.8082H21.7623H21.7165H21.6706H21.6248H21.5791H21.5333H21.4876H21.4419H21.3963H21.3507H21.3051H21.2596H21.2141H21.1686H21.1232H21.0778H21.0324H20.9871H20.9419H20.8966H20.8514H20.8063H20.7612H20.7161H20.6711H20.6262H20.5813H20.5364H20.4916H20.4468H20.4021H20.3574H20.3128H20.2682H20.2237H20.1792H20.1348H20.0904H20.0461H20.0018H19.9577H19.9135H19.8694H19.8254H19.7814H19.7375H19.6937H19.6499H19.6062H19.5625H19.5189H19.4754H19.4319H19.3885H19.3452H19.3019H19.2587H19.2156H19.1725H19.1295H19.0866H19.0438H19.001H18.9583H18.9156H18.8731H18.8306H18.7882H18.7459H18.7036H18.6614H18.6193H18.5773H18.5353H18.4935H18.4517H18.41H18.3684H18.3268H18.2854H18.244H18.2027H18.1615H18.1204H18.0794H18.0385H17.9976H17.9569H17.9162H17.8756H17.8352H17.7948H17.7545H17.7143H17.6742H17.6341H17.5942H17.5544H17.5147H17.475H17.4355H17.3961H17.3568H17.3175H17.2784H17.2394H17.2005H17.1616H17.1229H17.0843H17.0458H17.0074H16.9691H16.931H16.8929H16.8549H16.8171H16.7793H16.7417H16.7042H16.6668H16.6295H16.5923H16.5552H16.5183H16.4815H16.4447H16.4081H16.3717H16.3353H16.2991H16.263H16.227H16.1911H16.1553H16.1197H16.0842H16.0488H16.0136H15.9784H15.9434H15.9086H15.8738H15.8392H15.8047H15.7704H15.7361H15.7021H15.6681H15.6343H15.6006H15.567H15.5336H15.5003H15.4672H15.4342H15.4013H15.3686H15.336H15.3035H15.2712H15.239H15.207H15.1751H15.1434H15.1118H15.0803H15.049H15.0179H14.9869H14.956H14.9253H14.8947H14.8643H14.8341H14.8039H14.774H14.7442H14.7145H14.685H14.6557H14.6265H14.5975H14.5686H14.5399H14.5114H14.483H14.4547H14.4267H14.3988H14.371H14.3434H14.316H14.2887H14.2617H14.2347H14.208H14.1814H14.155H14.1287H14.1026H14.0767H14.051H14.0254H14V20.4H14.0254H14.051H14.0767H14.1026H14.1287H14.155H14.1814H14.208H14.2347H14.2617H14.2887H14.316H14.3434H14.371H14.3988H14.4267H14.4547H14.483H14.5114H14.5399H14.5686H14.5975H14.6265H14.6557H14.685H14.7145H14.7442H14.774H14.8039H14.8341H14.8643H14.8947H14.9253H14.956H14.9869H15.0179H15.049H15.0803H15.1118H15.1434H15.1751H15.207H15.239H15.2712H15.3035H15.336H15.3686H15.4013H15.4342H15.4672H15.5003H15.5336H15.567H15.6006H15.6343H15.6681H15.7021H15.7361H15.7704H15.8047H15.8392H15.8738H15.9086H15.9434H15.9784H16.0136H16.0488H16.0842H16.1197H16.1553H16.1911H16.227H16.263H16.2991H16.3353H16.3717H16.4081H16.4447H16.4815H16.5183H16.5552H16.5923H16.6295H16.6668H16.7042H16.7417H16.7793H16.8171H16.8549H16.8929H16.931H16.9691H17.0074H17.0458H17.0843H17.1229H17.1616H17.2005H17.2394H17.2784H17.3175H17.3568H17.3961H17.4355H17.475H17.5147H17.5544H17.5942H17.6341H17.6742H17.7143H17.7545H17.7948H17.8352H17.8756H17.9162H17.9569H17.9976H18.0385H18.0794H18.1204H18.1615H18.2027H18.244H18.2854H18.3268H18.3684H18.41H18.4517H18.4935H18.5353H18.5773H18.6193H18.6614H18.7036H18.7459H18.7882H18.8306H18.8731H18.9156H18.9583H19.001H19.0438H19.0866H19.1295H19.1725H19.2156H19.2587H19.3019H19.3452H19.3885H19.4319H19.4754H19.5189H19.5625H19.6062H19.6499H19.6937H19.7375H19.7814H19.8254H19.8694H19.9135H19.9577H20.0018H20.0461H20.0904H20.1348H20.1792H20.2237H20.2682H20.3128H20.3574H20.4021H20.4468H20.4916H20.5364H20.5813H20.6262H20.6711H20.7161H20.7612H20.8063H20.8514H20.8966H20.9419H20.9871H21.0324H21.0778H21.1232H21.1686H21.2141H21.2596H21.3051H21.3507H21.3963H21.4419H21.4876H21.5333H21.5791H21.6248H21.6706H21.7165H21.7623H21.8082H21.8541H21.9001H21.9461H21.9921H22.0381H22.0841H22.1302H22.1763H22.2224H22.2686H22.3147H22.3609H22.4071H22.4533H22.4995H22.5458H22.5921H22.6383H22.6846H22.731H22.7773H22.8236H22.87H22.9164H22.9627H23.0091H23.0555H23.1019H23.1483H23.1947H23.2412H23.2876H23.334H23.3805H23.4269H23.4734H23.5198H23.5663H23.6127H23.6592H23.7056H23.7521H23.7985H23.845H23.8914H23.9379H23.9843H24.0307H24.0772H24.1236H24.17H24.2164H24.2628H24.3092H24.3556H24.4019H24.4483H24.4946H24.5409H24.5872H24.6335H24.6798H24.7261H24.7723H24.8186H24.8648H24.911H24.9571H25.0033H25.0494H25.0955H25.1416H25.1877H25.2337H25.2797H25.3257H25.3717H25.4176H25.4636H25.5094H25.5553H25.6011H25.6469H25.6927H25.7384H25.7841H25.8298H25.8754H25.921H25.9666H26.0121H26.0576H26.1031H26.1485H26.1938H26.2392H26.2845H26.3297H26.375H26.4201H26.4653H26.5103H26.5554H26.6004H26.6453H26.6902H26.7351H26.7799H26.8247H26.8694H26.9141H26.9587H27.0032H27.0477H27.0922H27.1366H27.1809H27.2252H27.2695H27.3136H27.3578H27.4018H27.4458H27.4898H27.5337H27.5775H27.6213H27.665H27.7086H27.7522H27.7957H27.8392H27.8825H27.9259H27.9691H28.0123H28.0554H28.0984H28.1414H28.1843H28.2272H28.2699H28.3126H28.3552H28.3978H28.4402H28.4826H28.5249H28.5672H28.6093H28.6514H28.6934H28.7353H28.7772H28.8189H28.8606H28.9022H28.9437H28.9852H29.0265H29.0678H29.1089H29.15H29.191H29.2319H29.2727H29.3135H29.3541H29.3947H29.4351H29.4755H29.5158H29.5559H29.596H29.636H29.6759H29.7157H29.7554H29.795H29.8345H29.8739H29.9132H29.9524H29.9915H30.0305H30.0694H30.1082H30.1469H30.1854H30.2239H30.2623H30.3005H30.3387H30.3767H30.4147H30.4525H30.4902H30.5278H30.5653H30.6027H30.6399H30.6771H30.7141H30.751H30.7878H30.8245H30.8611H30.8975H30.9338H30.97H31.0061H31.0421H31.0779H31.1137H31.1493H31.1847H31.2201H31.2553H31.2904H31.3253H31.3602H31.3858L27.6929 16.7071L29.1071 15.2929ZM15.0929 29.3071L20.4929 34.7071L21.9071 33.2929L18.2142 29.6H18.2398H18.2747H18.3096H18.3447H18.3799H18.4153H18.4508H18.4863H18.5221H18.5579H18.5939H18.63H18.6662H18.7025H18.7389H18.7755H18.8122H18.849H18.8859H18.9229H18.9601H18.9973H19.0347H19.0722H19.1098H19.1475H19.1853H19.2233H19.2613H19.2995H19.3377H19.3761H19.4146H19.4531H19.4918H19.5306H19.5695H19.6085H19.6476H19.6868H19.7261H19.7655H19.805H19.8446H19.8843H19.9241H19.964H20.004H20.0441H20.0842H20.1245H20.1649H20.2053H20.2459H20.2865H20.3273H20.3681H20.409H20.45H20.4911H20.5322H20.5735H20.6148H20.6563H20.6978H20.7394H20.7811H20.8228H20.8647H20.9066H20.9486H20.9907H21.0328H21.0751H21.1174H21.1598H21.2022H21.2448H21.2874H21.3301H21.3728H21.4157H21.4586H21.5016H21.5446H21.5877H21.6309H21.6741H21.7175H21.7608H21.8043H21.8478H21.8914H21.935H21.9787H22.0225H22.0663H22.1102H22.1542H22.1982H22.2422H22.2864H22.3305H22.3748H22.4191H22.4634H22.5078H22.5523H22.5968H22.6413H22.6859H22.7306H22.7753H22.8201H22.8649H22.9098H22.9547H22.9996H23.0446H23.0897H23.1347H23.1799H23.225H23.2703H23.3155H23.3608H23.4062H23.4515H23.4969H23.5424H23.5879H23.6334H23.679H23.7246H23.7702H23.8159H23.8616H23.9073H23.9531H23.9989H24.0447H24.0906H24.1364H24.1824H24.2283H24.2743H24.3203H24.3663H24.4123H24.4584H24.5045H24.5506H24.5967H24.6429H24.689H24.7352H24.7814H24.8277H24.8739H24.9202H24.9665H25.0128H25.0591H25.1054H25.1517H25.1981H25.2444H25.2908H25.3372H25.3836H25.43H25.4764H25.5228H25.5693H25.6157H25.6621H25.7086H25.755H25.8015H25.8479H25.8944H25.9408H25.9873H26.0337H26.0802H26.1266H26.1731H26.2195H26.266H26.3124H26.3588H26.4053H26.4517H26.4981H26.5445H26.5909H26.6373H26.6837H26.73H26.7764H26.8227H26.869H26.9154H26.9617H27.0079H27.0542H27.1005H27.1467H27.1929H27.2391H27.2853H27.3314H27.3776H27.4237H27.4698H27.5159H27.5619H27.6079H27.6539H27.6999H27.7459H27.7918H27.8377H27.8835H27.9294H27.9752H28.0209H28.0667H28.1124H28.1581H28.2037H28.2493H28.2949H28.3404H28.3859H28.4314H28.4768H28.5222H28.5676H28.6129H28.6581H28.7034H28.7486H28.7937H28.8388H28.8839H28.9289H28.9738H29.0187H29.0636H29.1084H29.1532H29.1979H29.2426H29.2872H29.3318H29.3763H29.4208H29.4652H29.5096H29.5539H29.5982H29.6423H29.6865H29.7306H29.7746H29.8186H29.8625H29.9063H29.9501H29.9938H30.0375H30.0811H30.1246H30.1681H30.2115H30.2548H30.2981H30.3413H30.3844H30.4275H30.4705H30.5134H30.5562H30.599H30.6417H30.6843H30.7269H30.7694H30.8118H30.8541H30.8964H30.9386H30.9807H31.0227H31.0647H31.1065H31.1483H31.19H31.2316H31.2732H31.3146H31.356H31.3973H31.4385H31.4796H31.5206H31.5615H31.6024H31.6431H31.6838H31.7244H31.7648H31.8052H31.8455H31.8857H31.9258H31.9659H32.0058H32.0456H32.0853H32.125H32.1645H32.2039H32.2432H32.2825H32.3216H32.3606H32.3995H32.4384H32.4771H32.5157H32.5542H32.5926H32.6309H32.669H32.7071H32.7451H32.7829H32.8207H32.8583H32.8958H32.9332H32.9705H33.0077H33.0448H33.0817H33.1185H33.1553H33.1919H33.2283H33.2647H33.3009H33.337H33.373H33.4089H33.4447H33.4803H33.5158H33.5512H33.5864H33.6216H33.6566H33.6914H33.7262H33.7608H33.7953H33.8296H33.8639H33.8979H33.9319H33.9657H33.9994H34.033H34.0664H34.0997H34.1328H34.1658H34.1987H34.2314H34.264H34.2965H34.3288H34.361H34.393H34.4249H34.4566H34.4882H34.5197H34.551H34.5821H34.6131H34.644H34.6747H34.7053H34.7357H34.7659H34.7961H34.826H34.8558H34.8855H34.915H34.9443H34.9735H35.0025H35.0314H35.0601H35.0886H35.117H35.1453H35.1733H35.2012H35.229H35.2566H35.284H35.3113H35.3383H35.3653H35.392H35.4186H35.445H35.4713H35.4974H35.5233H35.549H35.5746H35.6V27.6H35.5746H35.549H35.5233H35.4974H35.4713H35.445H35.4186H35.392H35.3653H35.3383H35.3113H35.284H35.2566H35.229H35.2012H35.1733H35.1453H35.117H35.0886H35.0601H35.0314H35.0025H34.9735H34.9443H34.915H34.8855H34.8558H34.826H34.7961H34.7659H34.7357H34.7053H34.6747H34.644H34.6131H34.5821H34.551H34.5197H34.4882H34.4566H34.4249H34.393H34.361H34.3288H34.2965H34.264H34.2314H34.1987H34.1658H34.1328H34.0997H34.0664H34.033H33.9994H33.9657H33.9319H33.8979H33.8639H33.8296H33.7953H33.7608H33.7262H33.6914H33.6566H33.6216H33.5864H33.5512H33.5158H33.4803H33.4447H33.4089H33.373H33.337H33.3009H33.2647H33.2283H33.1919H33.1553H33.1185H33.0817H33.0448H33.0077H32.9705H32.9332H32.8958H32.8583H32.8207H32.7829H32.7451H32.7071H32.669H32.6309H32.5926H32.5542H32.5157H32.4771H32.4384H32.3995H32.3606H32.3216H32.2825H32.2432H32.2039H32.1645H32.125H32.0853H32.0456H32.0058H31.9659H31.9258H31.8857H31.8455H31.8052H31.7648H31.7244H31.6838H31.6431H31.6024H31.5615H31.5206H31.4796H31.4385H31.3973H31.356H31.3146H31.2732H31.2316H31.19H31.1483H31.1065H31.0647H31.0227H30.9807H30.9386H30.8964H30.8541H30.8118H30.7694H30.7269H30.6843H30.6417H30.599H30.5562H30.5134H30.4705H30.4275H30.3844H30.3413H30.2981H30.2548H30.2115H30.1681H30.1246H30.0811H30.0375H29.9938H29.9501H29.9063H29.8625H29.8186H29.7746H29.7306H29.6865H29.6423H29.5982H29.5539H29.5096H29.4652H29.4208H29.3763H29.3318H29.2872H29.2426H29.1979H29.1532H29.1084H29.0636H29.0187H28.9738H28.9289H28.8839H28.8388H28.7937H28.7486H28.7034H28.6581H28.6129H28.5676H28.5222H28.4768H28.4314H28.3859H28.3404H28.2949H28.2493H28.2037H28.1581H28.1124H28.0667H28.0209H27.9752H27.9294H27.8835H27.8377H27.7918H27.7459H27.6999H27.6539H27.6079H27.5619H27.5159H27.4698H27.4237H27.3776H27.3314H27.2853H27.2391H27.1929H27.1467H27.1005H27.0542H27.0079H26.9617H26.9154H26.869H26.8227H26.7764H26.73H26.6837H26.6373H26.5909H26.5445H26.4981H26.4517H26.4053H26.3588H26.3124H26.266H26.2195H26.1731H26.1266H26.0802H26.0337H25.9873H25.9408H25.8944H25.8479H25.8015H25.755H25.7086H25.6621H25.6157H25.5693H25.5228H25.4764H25.43H25.3836H25.3372H25.2908H25.2444H25.1981H25.1517H25.1054H25.0591H25.0128H24.9665H24.9202H24.8739H24.8277H24.7814H24.7352H24.689H24.6429H24.5967H24.5506H24.5045H24.4584H24.4123H24.3663H24.3203H24.2743H24.2283H24.1824H24.1364H24.0906H24.0447H23.9989H23.9531H23.9073H23.8616H23.8159H23.7702H23.7246H23.679H23.6334H23.5879H23.5424H23.4969H23.4515H23.4062H23.3608H23.3155H23.2703H23.225H23.1799H23.1347H23.0897H23.0446H22.9996H22.9547H22.9098H22.8649H22.8201H22.7753H22.7306H22.6859H22.6413H22.5968H22.5523H22.5078H22.4634H22.4191H22.3748H22.3305H22.2864H22.2422H22.1982H22.1542H22.1102H22.0663H22.0225H21.9787H21.935H21.8914H21.8478H21.8043H21.7608H21.7175H21.6741H21.6309H21.5877H21.5446H21.5016H21.4586H21.4157H21.3728H21.3301H21.2874H21.2448H21.2022H21.1598H21.1174H21.0751H21.0328H20.9907H20.9486H20.9066H20.8647H20.8228H20.7811H20.7394H20.6978H20.6563H20.6148H20.5735H20.5322H20.4911H20.45H20.409H20.3681H20.3273H20.2865H20.2459H20.2053H20.1649H20.1245H20.0842H20.0441H20.004H19.964H19.9241H19.8843H19.8446H19.805H19.7655H19.7261H19.6868H19.6476H19.6085H19.5695H19.5306H19.4918H19.4531H19.4146H19.3761H19.3377H19.2995H19.2613H19.2233H19.1853H19.1475H19.1098H19.0722H19.0347H18.9973H18.9601H18.9229H18.8859H18.849H18.8122H18.7755H18.7389H18.7025H18.6662H18.63H18.5939H18.5579H18.5221H18.4863H18.4508H18.4153H18.3799H18.3447H18.3096H18.2747H18.2398H18.2051H18.1705H18.1361H18.1018H18.0676H18.0335H17.9996H17.9658H17.9322H17.8986H17.8653H17.832H17.7989H17.7659H17.7331H17.7004H17.6678H17.6354H17.6032H17.571H17.539H17.5072H17.4755H17.4439H17.4125H17.3813H17.3501H17.3192H17.2884H17.2577H17.2272H17.1968H17.1666H17.1365H17.1066H17.0768H17.0472H17.0178H16.9885H16.9593H16.9303H16.9015H16.8729H16.8443H16.816H16.7878H16.7598H16.7319H16.7042H16.6767H16.6493H16.6221H16.595H16.5682H16.5415H16.5149H16.4885H16.4623H16.4363H16.4104H16.3847H16.3592H16.3338H16.3087H16.2837H16.2588H16.2342H16.2097H16.1854H16.1613H16.1373H16.1136H16.09H16.0666H16.0433H16.0203H15.9974H15.9748H15.9523H15.9299H15.9078H15.8859H15.8641H15.8426H15.8212H15.8H13.3858L15.0929 29.3071Z" fill="white"/>
</svg>
