<svg width="40" height="40" viewBox="0 0 40 40" fill="none" xmlns="http://www.w3.org/2000/svg">
<rect x="0.5" y="0.5" width="39" height="39" rx="9.5" stroke="white"/>
<path fill-rule="evenodd" clip-rule="evenodd" d="M17.4098 12.1809C14.3609 9.98564 10.0623 11.6632 9.30628 15.3433L7.26021 25.3027C6.93282 26.8963 7.97853 28.4479 9.57851 28.7425C10.6624 28.9421 11.7658 28.5108 12.4271 27.6291L14.2587 25.187H26.4414L28.273 27.6291C28.9343 28.5108 30.0377 28.9421 31.1216 28.7425C32.7216 28.4479 33.7673 26.8963 33.4399 25.3027L31.3938 15.3433C30.6378 11.6632 26.3392 9.98564 23.2903 12.1809C22.9118 12.4534 22.5811 12.7673 22.2999 13.1119H18.4002C18.119 12.7673 17.7883 12.4534 17.4098 12.1809ZM14.6526 21.5453C14.2341 21.5453 13.8947 21.2059 13.8947 20.7874V19.6505H12.7579C12.3393 19.6505 12 19.3112 12 18.8926C12 18.474 12.3393 18.1347 12.7579 18.1347H13.8947V16.9979C13.8947 16.5793 14.2341 16.24 14.6526 16.24C15.0712 16.24 15.4105 16.5793 15.4105 16.9979V18.1347H16.5474C16.9659 18.1347 17.3053 18.474 17.3053 18.8926C17.3053 19.3112 16.9659 19.6505 16.5474 19.6505H15.4105V20.7874C15.4105 21.2059 15.0712 21.5453 14.6526 21.5453ZM26.2318 17.1243C26.2318 17.6126 25.8359 18.0085 25.3476 18.0085C24.8593 18.0085 24.4634 17.6126 24.4634 17.1243C24.4634 16.636 24.8593 16.2401 25.3476 16.2401C25.8359 16.2401 26.2318 16.636 26.2318 17.1243ZM27.1159 19.7769C27.6043 19.7769 28.0002 19.381 28.0002 18.8927C28.0002 18.4043 27.6043 18.0084 27.1159 18.0084C26.6276 18.0084 26.2317 18.4043 26.2317 18.8927C26.2317 19.381 26.6276 19.7769 27.1159 19.7769ZM26.2318 20.6612C26.2318 21.1495 25.8359 21.5454 25.3476 21.5454C24.8593 21.5454 24.4634 21.1495 24.4634 20.6612C24.4634 20.1729 24.8593 19.777 25.3476 19.777C25.8359 19.777 26.2318 20.1729 26.2318 20.6612ZM23.5792 19.7769C24.0676 19.7769 24.4634 19.381 24.4634 18.8927C24.4634 18.4043 24.0676 18.0084 23.5792 18.0084C23.0909 18.0084 22.695 18.4043 22.695 18.8927C22.695 19.381 23.0909 19.7769 23.5792 19.7769Z" fill="white"/>
</svg>
