<svg width="40" height="40" viewBox="0 0 40 40" fill="none" xmlns="http://www.w3.org/2000/svg">
<path fill-rule="evenodd" clip-rule="evenodd" d="M10 0C4.47715 0 0 4.47715 0 10V30C0 35.5228 4.47715 40 10 40H30C35.5228 40 40 35.5228 40 30V10C40 4.47715 35.5228 0 30 0H10ZM17.4098 12.1809C14.3609 9.98564 10.0623 11.6632 9.30628 15.3433L7.26021 25.3027C6.93282 26.8963 7.97853 28.4479 9.57851 28.7425C10.6624 28.9421 11.7658 28.5108 12.4271 27.6291L14.2587 25.187H26.4414L28.273 27.6291C28.9343 28.5108 30.0377 28.9421 31.1216 28.7425C32.7216 28.4479 33.7673 26.8963 33.4399 25.3027L31.3938 15.3433C30.6378 11.6632 26.3392 9.98564 23.2903 12.1809C22.9118 12.4534 22.5811 12.7673 22.2999 13.1119H18.4002C18.119 12.7673 17.7883 12.4534 17.4098 12.1809Z" fill="white"/>
<path fill-rule="evenodd" clip-rule="evenodd" d="M13.8947 20.7874C13.8947 21.2059 14.2341 21.5453 14.6526 21.5453C15.0712 21.5453 15.4105 21.2059 15.4105 20.7874V19.6505H16.5474C16.9659 19.6505 17.3053 19.3112 17.3053 18.8926C17.3053 18.474 16.9659 18.1347 16.5474 18.1347H15.4105V16.9979C15.4105 16.5793 15.0712 16.24 14.6526 16.24C14.2341 16.24 13.8947 16.5793 13.8947 16.9979V18.1347H12.7579C12.3393 18.1347 12 18.474 12 18.8926C12 19.3112 12.3393 19.6505 12.7579 19.6505H13.8947V20.7874Z" fill="white"/>
<circle cx="25.3476" cy="17.1242" r="0.88421" fill="white"/>
<circle cx="27.1157" cy="18.8926" r="0.88421" fill="white"/>
<circle cx="25.3476" cy="20.6612" r="0.88421" fill="white"/>
<circle cx="23.579" cy="18.8926" r="0.88421" fill="white"/>
</svg>
