<svg width="40" height="40" viewBox="0 0 40 40" fill="none" xmlns="http://www.w3.org/2000/svg">
<path fill-rule="evenodd" clip-rule="evenodd" d="M10 0C4.47715 0 0 4.47715 0 10V30C0 35.5228 4.47715 40 10 40H30C35.5228 40 40 35.5228 40 30V10C40 4.47715 35.5228 0 30 0H10ZM10.4 23.0991C10.4 23.8631 11.0193 24.4823 11.7832 24.4823C12.5471 24.4823 13.1664 23.8631 13.1664 23.0991V16.1832C13.1664 15.4193 12.5471 14.8 11.7832 14.8C11.0193 14.8 10.4 15.4193 10.4 16.1832V23.0991ZM15.7832 27.6C15.0193 27.6 14.4 26.9807 14.4 26.2168V13.3832C14.4 12.6193 15.0193 12 15.7832 12C16.5471 12 17.1664 12.6193 17.1664 13.3832V26.2168C17.1664 26.9807 16.5471 27.6 15.7832 27.6ZM22.4 26.2168C22.4 26.9807 23.0193 27.6 23.7832 27.6C24.5471 27.6 25.1664 26.9807 25.1664 26.2168V13.3832C25.1664 12.6193 24.5471 12 23.7832 12C23.0193 12 22.4 12.6193 22.4 13.3832V26.2168ZM19.7832 31.6C19.0193 31.6 18.4 30.9807 18.4 30.2168V10.1832C18.4 9.41928 19.0193 8.8 19.7832 8.8C20.5471 8.8 21.1664 9.41928 21.1664 10.1832V30.2168C21.1664 30.9807 20.5471 31.6 19.7832 31.6ZM26.4 23.0991C26.4 23.8631 27.0193 24.4823 27.7832 24.4823C28.5471 24.4823 29.1664 23.8631 29.1664 23.0991V16.1832C29.1664 15.4193 28.5471 14.8 27.7832 14.8C27.0193 14.8 26.4 15.4193 26.4 16.1832V23.0991ZM31.7832 22.8C31.0193 22.8 30.4 22.1807 30.4 21.4168V18.9832C30.4 18.2193 31.0193 17.6 31.7832 17.6C32.5471 17.6 33.1664 18.2193 33.1664 18.9832V21.4168C33.1664 22.1807 32.5471 22.8 31.7832 22.8ZM6.4 21.4168C6.4 22.1807 7.01927 22.8 7.78319 22.8C8.5471 22.8 9.16638 22.1807 9.16638 21.4168V18.9832C9.16638 18.2193 8.5471 17.6 7.78319 17.6C7.01927 17.6 6.4 18.2193 6.4 18.9832V21.4168Z" fill="white"/>
</svg>
