<svg width="40" height="40" viewBox="0 0 40 40" fill="none" xmlns="http://www.w3.org/2000/svg">
<rect x="0.5" y="0.5" width="39" height="39" rx="9.5" stroke="white"/>
<path fill-rule="evenodd" clip-rule="evenodd" d="M11.7831 24.4823C11.0192 24.4823 10.3999 23.863 10.3999 23.0991V16.1832C10.3999 15.4193 11.0192 14.8 11.7831 14.8C12.547 14.8 13.1663 15.4193 13.1663 16.1832V23.0991C13.1663 23.863 12.547 24.4823 11.7831 24.4823Z" fill="white"/>
<path fill-rule="evenodd" clip-rule="evenodd" d="M15.7831 27.6C15.0192 27.6 14.3999 26.9807 14.3999 26.2168V13.3832C14.3999 12.6192 15.0192 12 15.7831 12C16.547 12 17.1663 12.6192 17.1663 13.3832V26.2168C17.1663 26.9807 16.547 27.6 15.7831 27.6Z" fill="white"/>
<path fill-rule="evenodd" clip-rule="evenodd" d="M23.7831 27.6C23.0192 27.6 22.3999 26.9807 22.3999 26.2168V13.3832C22.3999 12.6192 23.0192 12 23.7831 12C24.547 12 25.1663 12.6192 25.1663 13.3832V26.2168C25.1663 26.9807 24.547 27.6 23.7831 27.6Z" fill="white"/>
<path fill-rule="evenodd" clip-rule="evenodd" d="M19.7831 31.6C19.0192 31.6 18.3999 30.9807 18.3999 30.2168L18.3999 10.1832C18.3999 9.41925 19.0192 8.79998 19.7831 8.79998C20.547 8.79998 21.1663 9.41925 21.1663 10.1832V30.2168C21.1663 30.9807 20.547 31.6 19.7831 31.6Z" fill="white"/>
<path fill-rule="evenodd" clip-rule="evenodd" d="M27.7831 24.4823C27.0192 24.4823 26.3999 23.863 26.3999 23.0991V16.1832C26.3999 15.4193 27.0192 14.8 27.7831 14.8C28.547 14.8 29.1663 15.4193 29.1663 16.1832V23.0991C29.1663 23.863 28.547 24.4823 27.7831 24.4823Z" fill="white"/>
<path fill-rule="evenodd" clip-rule="evenodd" d="M31.7831 22.8C31.0192 22.8 30.3999 22.1808 30.3999 21.4169V18.9832C30.3999 18.2193 31.0192 17.6 31.7831 17.6C32.547 17.6 33.1663 18.2193 33.1663 18.9832V21.4169C33.1663 22.1808 32.547 22.8 31.7831 22.8Z" fill="white"/>
<path fill-rule="evenodd" clip-rule="evenodd" d="M7.78309 22.8C7.01918 22.8 6.3999 22.1808 6.3999 21.4169V18.9832C6.3999 18.2193 7.01918 17.6 7.78309 17.6C8.547 17.6 9.16628 18.2193 9.16628 18.9832V21.4169C9.16628 22.1808 8.547 22.8 7.78309 22.8Z" fill="white"/>
</svg>
