<svg width="3840" height="2161" viewBox="0 0 3840 2161" fill="none" xmlns="http://www.w3.org/2000/svg">
<rect width="3840" height="2160" fill="url(#paint0_linear_175_19)"/>
<rect width="3840" height="2160" fill="black" fill-opacity="0.2"/>
<circle cx="3326" cy="696" r="60" fill="#FFCB39"/>
<circle cx="3094" cy="505" r="60" fill="#F9DBBD"/>
<g opacity="0.4">
<mask id="mask0_175_19" style="mask-type:alpha" maskUnits="userSpaceOnUse" x="346" y="986" width="600" height="600">
<rect x="346" y="986" width="600" height="600" rx="300" fill="url(#paint1_radial_175_19)"/>
</mask>
<g mask="url(#mask0_175_19)">
<rect x="346" y="986" width="600" height="600" rx="300" fill="#555555"/>
<path fill-rule="evenodd" clip-rule="evenodd" d="M646 986C480.315 986 346 1120.31 346 1286C346 1451.69 480.315 1586 646 1586C677.54 1586 707.944 1581.13 736.5 1572.11C615.045 1533.73 527 1420.15 527 1286C527 1151.85 615.045 1038.27 736.5 999.892C707.944 990.867 677.54 986 646 986Z" fill="#999999"/>
<path d="M846.577 1395.57C845.043 1409.88 833.457 1422.86 812.754 1433.93C792.123 1444.97 762.899 1453.84 727.108 1460.12C655.553 1472.67 558.219 1474.77 452.094 1463.38C345.968 1452 251.294 1429.3 184.03 1401.86C150.386 1388.13 123.708 1373.26 105.887 1358.1C88.0045 1342.89 79.4356 1327.75 80.9703 1313.44C82.505 1299.13 94.0911 1286.15 114.793 1275.08C135.424 1264.05 164.649 1255.17 200.44 1248.89C271.995 1236.34 369.328 1234.25 475.454 1245.63C581.579 1257.02 676.253 1279.71 743.517 1307.16C777.162 1320.88 803.839 1335.75 821.661 1350.91C839.543 1366.12 848.112 1381.27 846.577 1395.57Z" stroke="#555555" stroke-width="4"/>
<rect x="473.891" y="1094.13" width="150" height="150" rx="75" transform="rotate(-0.853971 473.891 1094.13)" fill="#777777"/>
<path fill-rule="evenodd" clip-rule="evenodd" d="M591.246 1105.35C592.51 1106.61 593.744 1107.91 594.949 1109.25C641.945 1161.23 591.853 1246.52 528.579 1239.9C498.007 1230.8 475.509 1202.7 475.008 1169.12C474.391 1127.7 507.466 1093.63 548.882 1093.01C564.518 1092.78 579.108 1097.34 591.246 1105.35Z" fill="#666666"/>
<rect x="539.853" y="1158.15" width="20" height="20" rx="10" transform="rotate(-0.853971 539.853 1158.15)" fill="#999999"/>
<g style="mix-blend-mode:color">
<rect x="237" y="939" width="818" height="687" fill="#1E25C5"/>
</g>
</g>
</g>
<path d="M0 1403.5C702.915 1378.82 1439.5 1282.5 2202.5 1240.1C2202.5 1240.1 2981 1181.5 3113.5 1181.5C3246 1181.5 3840 1240.1 3840 1240.1V2161H0V1403.5Z" fill="#D04F98"/>
<path d="M0 1232L1036 1294L1619 1256.5L2202.5 1294C2202.5 1294 2761.5 1373 3094 1308C3426.5 1243 3840 1294 3840 1294V2160.5H0V1232Z" fill="#B63E84"/>
<path d="M0 1282C1458.94 1294.01 1062.5 1710 3840 1282V2160H0V1282Z" fill="#98346E"/>
<path d="M0 1475C841 1540 1535.5 1529 2238 1348C2916 1488.5 3291.5 1564 3840 1564V2160H0V1475Z" fill="#7A2A58"/>
<path d="M2238 1348C1535.5 1529 841 1540 0 1475V1899C182.167 1886.5 670.3 1842.5 1165.5 1766.5C1660.7 1690.5 2086.83 1455.83 2238 1348Z" fill="#5B1F41"/>
<g style="mix-blend-mode:luminosity" opacity="0.4">
<path d="M1791.78 1267.6C1927.8 1257.17 2064.72 1247.75 2202.5 1240.1C2202.5 1240.1 2981 1181.5 3113.5 1181.5C3246 1181.5 3840 1240.1 3840 1240.1V2161H0V1232L1036 1294L1619 1256.5L1791.78 1267.6Z" fill="#0057FF"/>
</g>
<g style="mix-blend-mode:difference" opacity="0.6">
<path d="M1791.78 1267.6C1927.8 1257.17 2064.72 1247.75 2202.5 1240.1C2202.5 1240.1 2981 1181.5 3113.5 1181.5C3246 1181.5 3840 1240.1 3840 1240.1V2161H0V1232L1036 1294L1619 1256.5L1791.78 1267.6Z" fill="#2400FF"/>
</g>
<mask id="mask1_175_19" style="mask-type:alpha" maskUnits="userSpaceOnUse" x="0" y="0" width="3840" height="1366">
<rect width="3840" height="1366" fill="url(#paint2_linear_175_19)"/>
</mask>
<g mask="url(#mask1_175_19)">
<circle cx="2908" cy="247" r="4" transform="rotate(-180 2908 247)" fill="#FFF59C"/>
<circle cx="3596" cy="147" r="4" transform="rotate(-180 3596 147)" fill="#FFF59C"/>
<circle r="5" transform="matrix(-1 0 0 1 2590 38)" fill="#FFF59C"/>
<circle r="5" transform="matrix(-1 0 0 1 112 338)" fill="#FFF59C"/>
<circle r="5" transform="matrix(-1 0 0 1 3756 359)" fill="#FFF59C"/>
<circle cx="853" cy="75" r="3" fill="white"/>
<circle cx="213" cy="412" r="3" fill="white"/>
<circle cx="1272" cy="192" r="3" fill="white"/>
<circle cx="1693" cy="65" r="3" fill="white"/>
<circle cx="2113" cy="345" r="3" fill="white"/>
<circle cx="2363" cy="215" r="3" fill="white"/>
<circle cx="2823" cy="465" r="3" fill="white"/>
<circle cx="3403" cy="115" r="3" fill="white"/>
<circle cx="3476" cy="163" r="3" fill="white"/>
<circle cx="3712" cy="232" r="3" fill="white"/>
<circle cx="52" cy="260" r="3" fill="white"/>
<circle cx="1621" cy="103" r="1" fill="white"/>
<circle cx="1661" cy="123" r="1" fill="white"/>
<circle cx="1531" cy="183" r="1" fill="white"/>
<circle cx="1331" cy="83" r="1" fill="white"/>
<circle cx="1131" cy="23" r="1" fill="white"/>
<circle cx="1091" cy="53" r="1" fill="white"/>
<circle cx="1071" cy="33" r="1" fill="white"/>
<circle cx="1051" cy="83" r="1" fill="white"/>
<circle cx="1201" cy="133" r="1" fill="white"/>
<circle cx="1291" cy="253" r="1" fill="white"/>
<circle cx="1301" cy="261" r="1" fill="white"/>
<circle cx="1310" cy="247" r="1" fill="white"/>
<circle cx="1317" cy="250" r="1" fill="white"/>
<circle cx="1320" cy="274" r="1" fill="white"/>
<circle cx="1361" cy="248" r="1" fill="white"/>
<circle cx="1348" cy="268" r="1" fill="white"/>
<circle cx="1447" cy="302" r="1" fill="white"/>
<circle cx="1471" cy="114" r="1" fill="white"/>
<circle cx="1876" cy="85" r="1" fill="white"/>
<circle cx="1775" cy="233" r="1" fill="white"/>
<circle cx="1714" cy="377" r="1" fill="white"/>
<circle cx="1738" cy="364" r="1" fill="white"/>
<circle cx="1851" cy="458" r="1" fill="white"/>
<circle cx="1563" cy="588" r="1" fill="white"/>
<circle cx="1385" cy="422" r="1" fill="white"/>
<circle cx="1063" cy="215" r="1" fill="white"/>
<circle cx="741" cy="8" r="1" fill="white"/>
<circle cx="2159" cy="33" r="1" fill="white"/>
<circle cx="2227" cy="8" r="1" fill="white"/>
<circle cx="2339" cy="143" r="1" fill="white"/>
<circle cx="2407" cy="292" r="1" fill="white"/>
<circle cx="2487" cy="188" r="1" fill="white"/>
<circle cx="2511" cy="168" r="1" fill="white"/>
<circle cx="2608" cy="265" r="1" fill="white"/>
<circle cx="2695" cy="423" r="1" fill="white"/>
<circle cx="2586" cy="550" r="1" fill="white"/>
<circle cx="2565" cy="754" r="1" fill="white"/>
<circle cx="2860" cy="55" r="1" fill="white"/>
<circle cx="3066" cy="35" r="1" fill="white"/>
<circle cx="3135" cy="169" r="1" fill="white"/>
<circle cx="3229" cy="278" r="1" fill="white"/>
<circle cx="3162" cy="425" r="1" fill="white"/>
<circle cx="131" cy="660" r="1" fill="white"/>
<circle cx="110" cy="864" r="1" fill="white"/>
<circle cx="405" cy="165" r="1" fill="white"/>
<circle cx="611" cy="145" r="1" fill="white"/>
<circle cx="680" cy="279" r="1" fill="white"/>
<circle cx="774" cy="388" r="1" fill="white"/>
<circle cx="707" cy="535" r="1" fill="white"/>
<circle r="1" transform="matrix(-1 0 0 1 3634 318)" fill="white"/>
<circle r="1" transform="matrix(-1 0 0 1 3594 48)" fill="white"/>
<circle r="1" transform="matrix(-1 0 0 1 3564 78)" fill="white"/>
<circle r="1" transform="matrix(-1 0 0 1 3554 68)" fill="white"/>
<circle r="1" transform="matrix(-1 0 0 1 3444 148)" fill="white"/>
<circle r="1" transform="matrix(-1 0 0 1 3294 38)" fill="white"/>
<circle r="1" transform="matrix(-1 0 0 1 3544 295)" fill="white"/>
<circle cx="3667" cy="217" r="1" fill="white"/>
<circle r="1" transform="matrix(-1 0 0 1 3525 289)" fill="white"/>
<circle cx="3683" cy="206" r="1" fill="white"/>
<circle r="1" transform="matrix(-1 0 0 1 3515 316)" fill="white"/>
<circle r="1" transform="matrix(-1 0 0 1 3474 290)" fill="white"/>
<circle r="1" transform="matrix(-1 0 0 1 3404 343)" fill="white"/>
<circle r="1" transform="matrix(-1 0 0 1 3334 313)" fill="white"/>
<circle r="1" transform="matrix(-1 0 0 1 3254 253)" fill="white"/>
<circle r="1" transform="matrix(-1 0 0 1 3304 383)" fill="white"/>
<circle r="1" transform="matrix(-1 0 0 1 3254 583)" fill="white"/>
<circle r="1" transform="matrix(-1 0 0 1 3321 482)" fill="white"/>
<circle r="1" transform="matrix(-1 0 0 1 3578 241)" fill="white"/>
<circle r="1" transform="matrix(-1 0 0 1 3765 20)" fill="white"/>
<circle r="1" transform="matrix(-1 0 0 1 3711 375)" fill="white"/>
<circle r="1" transform="matrix(-1 0 0 1 3704 329)" fill="white"/>
<circle r="1" transform="matrix(-1 0 0 1 3787 283)" fill="white"/>
<circle r="1" transform="matrix(-1 0 0 1 3204 633)" fill="white"/>
<circle r="1" transform="matrix(-1 0 0 1 3274 813)" fill="white"/>
<circle r="1" transform="matrix(-1 0 0 1 3214 1003)" fill="white"/>
<circle cx="2247" cy="22" r="1" fill="white"/>
<circle cx="724" cy="35" r="1" fill="white"/>
<circle cx="485" cy="21" r="1" fill="white"/>
<circle cx="265" cy="109" r="1" fill="white"/>
<circle cx="83" cy="194" r="1" fill="white"/>
<circle cx="33" cy="278" r="1" fill="white"/>
<circle r="0.5" transform="matrix(1 0 0 -1 1610.5 788.5)" fill="white"/>
<circle r="0.5" transform="matrix(1 0 0 -1 1650.5 768.5)" fill="white"/>
<circle r="0.5" transform="matrix(1 0 0 -1 1520.5 708.5)" fill="white"/>
<circle r="0.5" transform="matrix(1 0 0 -1 1320.5 808.5)" fill="white"/>
<circle r="0.5" transform="matrix(1 0 0 -1 1120.5 868.5)" fill="white"/>
<circle r="0.5" transform="matrix(1 0 0 -1 1080.5 838.5)" fill="white"/>
<circle r="0.5" transform="matrix(1 0 0 -1 1060.5 858.5)" fill="white"/>
<circle r="0.5" transform="matrix(1 0 0 -1 1040.5 808.5)" fill="white"/>
<circle r="0.5" transform="matrix(1 0 0 -1 1190.5 758.5)" fill="white"/>
<circle r="0.5" transform="matrix(1 0 0 -1 1280.5 638.5)" fill="white"/>
<circle r="0.5" transform="matrix(1 0 0 -1 1290.5 630.5)" fill="white"/>
<circle r="0.5" transform="matrix(1 0 0 -1 1299.5 644.5)" fill="white"/>
<circle r="0.5" transform="matrix(1 0 0 -1 1306.5 641.5)" fill="white"/>
<circle r="0.5" transform="matrix(1 0 0 -1 1309.5 617.5)" fill="white"/>
<circle r="0.5" transform="matrix(1 0 0 -1 1350.5 643.5)" fill="white"/>
<circle r="0.5" transform="matrix(1 0 0 -1 1337.5 623.5)" fill="white"/>
<circle r="0.5" transform="matrix(1 0 0 -1 1436.5 589.5)" fill="white"/>
<circle r="0.5" transform="matrix(1 0 0 -1 1460.5 777.5)" fill="white"/>
<circle r="0.5" transform="matrix(1 0 0 -1 1865.5 806.5)" fill="white"/>
<circle r="0.5" transform="matrix(1 0 0 -1 1764.5 658.5)" fill="white"/>
<circle r="0.5" transform="matrix(1 0 0 -1 1703.5 514.5)" fill="white"/>
<circle r="0.5" transform="matrix(1 0 0 -1 1727.5 527.5)" fill="white"/>
<circle r="0.5" transform="matrix(1 0 0 -1 1840.5 433.5)" fill="white"/>
<circle r="0.5" transform="matrix(1 0 0 -1 1552.5 303.5)" fill="white"/>
<circle r="0.5" transform="matrix(1 0 0 -1 1374.5 469.5)" fill="white"/>
<circle r="0.5" transform="matrix(1 0 0 -1 1052.5 676.5)" fill="white"/>
<circle r="0.5" transform="matrix(1 0 0 -1 730.5 883.5)" fill="white"/>
<circle r="0.5" transform="matrix(1 0 0 -1 2148.5 858.5)" fill="white"/>
<circle r="0.5" transform="matrix(1 0 0 -1 2216.5 883.5)" fill="white"/>
<circle r="0.5" transform="matrix(1 0 0 -1 2328.5 748.5)" fill="white"/>
<circle r="0.5" transform="matrix(1 0 0 -1 2396.5 599.5)" fill="white"/>
<circle r="0.5" transform="matrix(1 0 0 -1 2476.5 703.5)" fill="white"/>
<circle r="0.5" transform="matrix(1 0 0 -1 2500.5 723.5)" fill="white"/>
<circle r="0.5" transform="matrix(1 0 0 -1 2597.5 626.5)" fill="white"/>
<circle r="0.5" transform="matrix(1 0 0 -1 2684.5 468.5)" fill="white"/>
<circle r="0.5" transform="matrix(1 0 0 -1 2575.5 341.5)" fill="white"/>
<circle r="0.5" transform="matrix(1 0 0 -1 2554.5 137.5)" fill="white"/>
<circle r="0.5" transform="matrix(1 0 0 -1 2849.5 836.5)" fill="white"/>
<circle r="0.5" transform="matrix(1 0 0 -1 3055.5 856.5)" fill="white"/>
<circle r="0.5" transform="matrix(1 0 0 -1 3124.5 722.5)" fill="white"/>
<circle r="0.5" transform="matrix(1 0 0 -1 3218.5 613.5)" fill="white"/>
<circle r="0.5" transform="matrix(1 0 0 -1 3151.5 466.5)" fill="white"/>
<circle r="0.5" transform="matrix(1 0 0 -1 120.5 231.5)" fill="white"/>
<circle r="0.5" transform="matrix(1 0 0 -1 99.5 217.5)" fill="white"/>
<circle r="0.5" transform="matrix(1 0 0 -1 394.5 726.5)" fill="white"/>
<circle r="0.5" transform="matrix(1 0 0 -1 600.5 746.5)" fill="white"/>
<circle r="0.5" transform="matrix(1 0 0 -1 669.5 612.5)" fill="white"/>
<circle r="0.5" transform="matrix(1 0 0 -1 763.5 503.5)" fill="white"/>
<circle r="0.5" transform="matrix(1 0 0 -1 696.5 356.5)" fill="white"/>
<circle cx="3624.5" cy="573.5" r="0.5" transform="rotate(-180 3624.5 573.5)" fill="white"/>
<circle cx="3584.5" cy="843.5" r="0.5" transform="rotate(-180 3584.5 843.5)" fill="white"/>
<circle cx="3554.5" cy="813.5" r="0.5" transform="rotate(-180 3554.5 813.5)" fill="white"/>
<circle cx="3544.5" cy="823.5" r="0.5" transform="rotate(-180 3544.5 823.5)" fill="white"/>
<circle cx="3434.5" cy="743.5" r="0.5" transform="rotate(-180 3434.5 743.5)" fill="white"/>
<circle cx="3284.5" cy="853.5" r="0.5" transform="rotate(-180 3284.5 853.5)" fill="white"/>
<circle cx="3534.5" cy="596.5" r="0.5" transform="rotate(-180 3534.5 596.5)" fill="white"/>
<circle r="0.5" transform="matrix(1 0 0 -1 3656.5 674.5)" fill="white"/>
<circle cx="3515.5" cy="602.5" r="0.5" transform="rotate(-180 3515.5 602.5)" fill="white"/>
<circle r="0.5" transform="matrix(1 0 0 -1 3672.5 685.5)" fill="white"/>
<circle cx="3505.5" cy="575.5" r="0.5" transform="rotate(-180 3505.5 575.5)" fill="white"/>
<circle cx="3464.5" cy="601.5" r="0.5" transform="rotate(-180 3464.5 601.5)" fill="white"/>
<circle cx="3394.5" cy="548.5" r="0.5" transform="rotate(-180 3394.5 548.5)" fill="white"/>
<circle cx="3324.5" cy="578.5" r="0.5" transform="rotate(-180 3324.5 578.5)" fill="white"/>
<circle cx="3244.5" cy="638.5" r="0.5" transform="rotate(-180 3244.5 638.5)" fill="white"/>
<circle cx="3294.5" cy="508.5" r="0.5" transform="rotate(-180 3294.5 508.5)" fill="white"/>
<circle cx="3244.5" cy="308.5" r="0.5" transform="rotate(-180 3244.5 308.5)" fill="white"/>
<circle cx="3311.5" cy="409.5" r="0.5" transform="rotate(-180 3311.5 409.5)" fill="white"/>
<circle cx="3568.5" cy="650.5" r="0.5" transform="rotate(-180 3568.5 650.5)" fill="white"/>
<circle cx="3755.5" cy="871.5" r="0.5" transform="rotate(-180 3755.5 871.5)" fill="white"/>
<circle cx="3701.5" cy="516.5" r="0.5" transform="rotate(-180 3701.5 516.5)" fill="white"/>
<circle cx="3694.5" cy="562.5" r="0.5" transform="rotate(-180 3694.5 562.5)" fill="white"/>
<circle cx="3777.5" cy="608.5" r="0.5" transform="rotate(-180 3777.5 608.5)" fill="white"/>
<circle cx="3194.5" cy="258.5" r="0.5" transform="rotate(-180 3194.5 258.5)" fill="white"/>
<circle cx="3264.5" cy="268.5" r="0.5" transform="rotate(-180 3264.5 268.5)" fill="white"/>
<circle cx="3204.5" cy="78.5" r="0.5" transform="rotate(-180 3204.5 78.5)" fill="white"/>
<circle r="0.5" transform="matrix(1 0 0 -1 2236.5 869.5)" fill="white"/>
<circle r="0.5" transform="matrix(1 0 0 -1 713.5 856.5)" fill="white"/>
<circle r="0.5" transform="matrix(1 0 0 -1 474.5 870.5)" fill="white"/>
<circle r="0.5" transform="matrix(1 0 0 -1 254.5 782.5)" fill="white"/>
<circle r="0.5" transform="matrix(1 0 0 -1 72.5 697.5)" fill="white"/>
<circle r="0.5" transform="matrix(1 0 0 -1 22.5 613.5)" fill="white"/>
</g>
<g opacity="0.3">
<rect width="3840" height="2161" fill="url(#paint3_linear_175_19)" style="mix-blend-mode:color-burn"/>
</g>
<defs>
<linearGradient id="paint0_linear_175_19" x1="1920" y1="0" x2="1920" y2="1697" gradientUnits="userSpaceOnUse">
<stop stop-color="#031D44"/>
<stop offset="0.572917" stop-color="#5E26A7"/>
<stop offset="0.948228" stop-color="#D94E90"/>
<stop offset="1" stop-color="#DC3B26"/>
</linearGradient>
<radialGradient id="paint1_radial_175_19" cx="0" cy="0" r="1" gradientUnits="userSpaceOnUse" gradientTransform="translate(336.5 1140.5) rotate(25.4772) scale(624.199)">
<stop stop-color="white"/>
<stop offset="1" stop-color="white" stop-opacity="0"/>
</radialGradient>
<linearGradient id="paint2_linear_175_19" x1="1920" y1="456.5" x2="1920" y2="1366" gradientUnits="userSpaceOnUse">
<stop stop-color="white"/>
<stop offset="1" stop-color="white" stop-opacity="0"/>
</linearGradient>
<linearGradient id="paint3_linear_175_19" x1="0" y1="0" x2="603.5" y2="1965.5" gradientUnits="userSpaceOnUse">
<stop/>
<stop offset="1" stop-opacity="0"/>
</linearGradient>
</defs>
</svg>
