<svg width="40" height="40" viewBox="0 0 40 40" fill="none" xmlns="http://www.w3.org/2000/svg">
<path fill-rule="evenodd" clip-rule="evenodd" d="M0 10C0 4.47715 4.47715 0 10 0H30C35.5228 0 40 4.47715 40 10V30C40 35.5228 35.5228 40 30 40H10C4.47715 40 0 35.5228 0 30V10ZM7.75 12C7.75 9.65279 9.65279 7.75 12 7.75H28C30.3472 7.75 32.25 9.65279 32.25 12V28C32.25 30.3472 30.3472 32.25 28 32.25H12C9.65279 32.25 7.75 30.3472 7.75 28V12ZM12 10.25C11.0335 10.25 10.25 11.0335 10.25 12V28C10.25 28.9665 11.0335 29.75 12 29.75H22.25L29.75 22.25V12C29.75 11.0335 28.9665 10.25 28 10.25H12Z" fill="white"/>
</svg>
