<svg width="110" height="31" viewBox="0 0 110 31" fill="none" xmlns="http://www.w3.org/2000/svg">
<path fill-rule="evenodd" clip-rule="evenodd" d="M97.4415 16.7943L97 18.8755L99.134 18.5039L107.817 9.65868L106.125 8.02344L97.4415 16.7943Z" fill="white"/>
<path d="M108.155 6.00002L106.958 7.20886L108.623 8.89072L109.82 7.68189L108.155 6.00002Z" fill="white"/>
<path fill-rule="evenodd" clip-rule="evenodd" d="M103 1H85V24H103V15.993L104 14.9743V24V25H103H85H84V24V1V0H85H103H104V1V8.74799L103 9.75809V1Z" fill="white"/>
<line x1="88" y1="6.75" x2="100" y2="6.75" stroke="white" stroke-width="1.5"/>
<line x1="88" y1="12.45" x2="100" y2="12.45" stroke="white" stroke-width="1.5"/>
<line x1="88" y1="18.25" x2="96" y2="18.25" stroke="white" stroke-width="1.5"/>
<path d="M8.596 13.848V15.032H5.556V25H4.1V15.032H1.044V13.848H8.596ZM14.2123 25.144C13.3909 25.144 12.6443 24.9573 11.9723 24.584C11.3109 24.2107 10.7883 23.6827 10.4043 23C10.0309 22.3067 9.84425 21.5067 9.84425 20.6C9.84425 19.704 10.0363 18.9147 10.4203 18.232C10.8149 17.5387 11.3483 17.0107 12.0203 16.648C12.6923 16.2747 13.4443 16.088 14.2763 16.088C15.1083 16.088 15.8603 16.2747 16.5323 16.648C17.2043 17.0107 17.7323 17.5333 18.1163 18.216C18.5109 18.8987 18.7083 19.6933 18.7083 20.6C18.7083 21.5067 18.5056 22.3067 18.1003 23C17.7056 23.6827 17.1669 24.2107 16.4843 24.584C15.8016 24.9573 15.0443 25.144 14.2123 25.144ZM14.2123 23.864C14.7349 23.864 15.2256 23.7413 15.6843 23.496C16.1429 23.2507 16.5109 22.8827 16.7883 22.392C17.0763 21.9013 17.2203 21.304 17.2203 20.6C17.2203 19.896 17.0816 19.2987 16.8043 18.808C16.5269 18.3173 16.1643 17.9547 15.7163 17.72C15.2683 17.4747 14.7829 17.352 14.2603 17.352C13.7269 17.352 13.2363 17.4747 12.7883 17.72C12.3509 17.9547 11.9989 18.3173 11.7323 18.808C11.4656 19.2987 11.3323 19.896 11.3323 20.6C11.3323 21.3147 11.4603 21.9173 11.7163 22.408C11.9829 22.8987 12.3349 23.2667 12.7723 23.512C13.2096 23.7467 13.6896 23.864 14.2123 23.864ZM24.3443 20.584C24.3443 19.688 24.5256 18.904 24.8883 18.232C25.2509 17.5493 25.7469 17.0213 26.3763 16.648C27.0163 16.2747 27.7309 16.088 28.5203 16.088C29.2029 16.088 29.8376 16.248 30.4243 16.568C31.0109 16.8773 31.4589 17.288 31.7683 17.8V13.16H33.2403V25H31.7683V23.352C31.4803 23.8747 31.0536 24.3067 30.4883 24.648C29.9229 24.9787 29.2616 25.144 28.5043 25.144C27.7256 25.144 27.0163 24.952 26.3763 24.568C25.7469 24.184 25.2509 23.6453 24.8883 22.952C24.5256 22.2587 24.3443 21.4693 24.3443 20.584ZM31.7683 20.6C31.7683 19.9387 31.6349 19.3627 31.3683 18.872C31.1016 18.3813 30.7389 18.008 30.2803 17.752C29.8323 17.4853 29.3363 17.352 28.7923 17.352C28.2483 17.352 27.7523 17.48 27.3043 17.736C26.8563 17.992 26.4989 18.3653 26.2323 18.856C25.9656 19.3467 25.8323 19.9227 25.8323 20.584C25.8323 21.256 25.9656 21.8427 26.2323 22.344C26.4989 22.8347 26.8563 23.2133 27.3043 23.48C27.7523 23.736 28.2483 23.864 28.7923 23.864C29.3363 23.864 29.8323 23.736 30.2803 23.48C30.7389 23.2133 31.1016 22.8347 31.3683 22.344C31.6349 21.8427 31.7683 21.2613 31.7683 20.6ZM39.5248 25.144C38.7034 25.144 37.9568 24.9573 37.2848 24.584C36.6234 24.2107 36.1008 23.6827 35.7168 23C35.3434 22.3067 35.1568 21.5067 35.1568 20.6C35.1568 19.704 35.3488 18.9147 35.7328 18.232C36.1274 17.5387 36.6608 17.0107 37.3328 16.648C38.0048 16.2747 38.7568 16.088 39.5888 16.088C40.4208 16.088 41.1728 16.2747 41.8448 16.648C42.5168 17.0107 43.0448 17.5333 43.4288 18.216C43.8234 18.8987 44.0208 19.6933 44.0208 20.6C44.0208 21.5067 43.8181 22.3067 43.4128 23C43.0181 23.6827 42.4794 24.2107 41.7968 24.584C41.1141 24.9573 40.3568 25.144 39.5248 25.144ZM39.5248 23.864C40.0474 23.864 40.5381 23.7413 40.9968 23.496C41.4554 23.2507 41.8234 22.8827 42.1008 22.392C42.3888 21.9013 42.5328 21.304 42.5328 20.6C42.5328 19.896 42.3941 19.2987 42.1168 18.808C41.8394 18.3173 41.4768 17.9547 41.0288 17.72C40.5808 17.4747 40.0954 17.352 39.5728 17.352C39.0394 17.352 38.5488 17.4747 38.1008 17.72C37.6634 17.9547 37.3114 18.3173 37.0448 18.808C36.7781 19.2987 36.6448 19.896 36.6448 20.6C36.6448 21.3147 36.7728 21.9173 37.0288 22.408C37.2954 22.8987 37.6474 23.2667 38.0848 23.512C38.5221 23.7467 39.0021 23.864 39.5248 23.864ZM51.6568 23.816H55.5608V25H50.2008V13.848H51.6568V23.816ZM57.859 14.808C57.5817 14.808 57.347 14.712 57.155 14.52C56.963 14.328 56.867 14.0933 56.867 13.816C56.867 13.5387 56.963 13.304 57.155 13.112C57.347 12.92 57.5817 12.824 57.859 12.824C58.1257 12.824 58.3497 12.92 58.531 13.112C58.723 13.304 58.819 13.5387 58.819 13.816C58.819 14.0933 58.723 14.328 58.531 14.52C58.3497 14.712 58.1257 14.808 57.859 14.808ZM58.563 16.232V25H57.107V16.232H58.563ZM64.1485 25.144C63.4765 25.144 62.8738 25.032 62.3405 24.808C61.8072 24.5733 61.3858 24.2533 61.0765 23.848C60.7672 23.432 60.5965 22.9573 60.5645 22.424H62.0685C62.1112 22.8613 62.3138 23.2187 62.6765 23.496C63.0498 23.7733 63.5352 23.912 64.1325 23.912C64.6872 23.912 65.1245 23.7893 65.4445 23.544C65.7645 23.2987 65.9245 22.9893 65.9245 22.616C65.9245 22.232 65.7538 21.9493 65.4125 21.768C65.0712 21.576 64.5432 21.3893 63.8285 21.208C63.1778 21.0373 62.6445 20.8667 62.2285 20.696C61.8232 20.5147 61.4712 20.2533 61.1725 19.912C60.8845 19.56 60.7405 19.1013 60.7405 18.536C60.7405 18.088 60.8738 17.6773 61.1405 17.304C61.4072 16.9307 61.7858 16.6373 62.2765 16.424C62.7672 16.2 63.3272 16.088 63.9565 16.088C64.9272 16.088 65.7112 16.3333 66.3085 16.824C66.9058 17.3147 67.2258 17.9867 67.2685 18.84H65.8125C65.7805 18.3813 65.5938 18.0133 65.2525 17.736C64.9218 17.4587 64.4738 17.32 63.9085 17.32C63.3858 17.32 62.9698 17.432 62.6605 17.656C62.3512 17.88 62.1965 18.1733 62.1965 18.536C62.1965 18.824 62.2872 19.064 62.4685 19.256C62.6605 19.4373 62.8952 19.5867 63.1725 19.704C63.4605 19.8107 63.8552 19.9333 64.3565 20.072C64.9858 20.2427 65.4978 20.4133 65.8925 20.584C66.2872 20.744 66.6232 20.9893 66.9005 21.32C67.1885 21.6507 67.3378 22.0827 67.3485 22.616C67.3485 23.096 67.2152 23.528 66.9485 23.912C66.6818 24.296 66.3032 24.6 65.8125 24.824C65.3325 25.0373 64.7778 25.144 64.1485 25.144ZM71.1799 17.432V22.6C71.1799 23.0267 71.2705 23.3307 71.4519 23.512C71.6332 23.6827 71.9479 23.768 72.3959 23.768H73.4679V25H72.1559C71.3452 25 70.7372 24.8133 70.3319 24.44C69.9265 24.0667 69.7239 23.4533 69.7239 22.6V17.432H68.5879V16.232H69.7239V14.024H71.1799V16.232H73.4679V17.432H71.1799Z" fill="white"/>
</svg>
